<?xml version="1.0" encoding="utf-8"?>
<!-- Generator: Adobe Illustrator 26.4.1, SVG Export Plug-In . SVG Version: 6.00 Build 0)  -->
<svg version="1.1" id="Layer_1" xmlns="http://www.w3.org/2000/svg" xmlns:xlink="http://www.w3.org/1999/xlink" x="0px" y="0px"
	 viewBox="0 0 141.3 56" style="enable-background:new 0 0 141.3 56;" xml:space="preserve">
<style type="text/css">
	.st0{fill:#06BAB5;}
	.st1{fill:#FFFFFF;}
</style>
<g id="Layer_2_00000055674405218889882070000009029153695160688003_">
	<g>
		<path class="st0" d="M57.9,13.4c0,1.5-1.1,3.1-3.2,4.7c1.9,2.8,2.9,5.4,2.9,7.8c0,0.6-0.2,0.9-0.5,0.9s-0.4-0.4-0.4-1.2
			c0-2.3-0.8-4.7-2.5-7.1c-3.4,2.5-8,4.7-13.9,6.6c-5.8,1.8-11,2.8-15.6,2.8c-0.6,0-1.2,0-1.7-0.1c-3.8,5.2-5.6,10.3-5.6,15.1
			c0,3.3,1,5.9,3.1,7.8c2.1,1.9,4.8,2.9,8.4,2.9c6.7,0,12.6-3.2,17.9-9.6c3.2-3.9,4.7-7.5,4.7-11c0-1.8-0.5-3.3-1.6-4.4
			S47.3,27,45.5,27c-2.9,0-6.1,1.5-9.4,4.6c-3.4,3.1-5,6-5,8.6c0,0.2,0.1,0.4,0.2,0.4s0.2-0.1,0.3-0.1c0.6-0.6,1.2-0.8,1.7-0.8
			c1.2,0,1.8,0.6,1.8,1.9c0,1.7-0.8,2.6-2.5,2.6c-1.5,0-2.3-0.9-2.3-2.8c0-3.4,1.7-6.7,5.1-10c3.4-3.3,6.8-4.9,10.3-4.9
			c4.5,0,6.8,2.5,6.8,7.4c0,5.1-2.4,9.8-7.3,14s-10.3,6.3-16.3,6.3c-4.1,0-7.6-1.4-10.5-4.2c-2.8-2.8-4.2-6.2-4.2-10.3
			c0-4,1.4-8.1,4.2-12.3c-10.1-1.9-15.2-5.9-15.2-12c0-3.7,1.9-6.7,5.7-9.2S17.4,2.5,23,2.5c7.9,0,15.8,2.6,23.8,7.8
			c1.4-0.3,2.8-0.4,4.3-0.4C55.5,10,57.9,11.1,57.9,13.4z M45.6,10.5c-7.1-4.1-14.7-6.2-22.7-6.2c-5,0-9.3,1.2-13,3.5
			S4.3,12.9,4.3,16c0,5.6,4.8,9.2,14.3,10.9C24.5,18.7,33.5,13.3,45.6,10.5z M53.9,18.1c-1.8-2.6-4.2-4.9-7.3-6.9
			c-4.4,1.2-8.7,3.3-12.8,6.2c-4.2,2.9-7.6,6.2-10.3,10c4.9,0,10.3-0.9,16.3-2.7S50.4,20.7,53.9,18.1z M57.3,13.4
			c0-1.9-1.9-2.9-5.6-2.9c-1.2,0-2.6,0.2-4.2,0.5c2.8,1.9,5.1,4.2,6.9,6.7C56.3,16.1,57.3,14.7,57.3,13.4z"/>
	</g>
</g>
<g id="Layer_1_00000013894271930326560260000012386277605933012866_">
	<g>
		<path class="st1" d="M49.2,16.3c0,0.8-0.5,1.6-1.6,2.4c1,1.4,1.4,2.7,1.4,3.9c0,0.3-0.1,0.4-0.3,0.4c-0.1,0-0.2-0.2-0.2-0.6
			c0-1.2-0.4-2.4-1.2-3.6c-1.7,1.3-4,2.4-6.9,3.3s-5.5,1.4-7.8,1.4c-0.3,0-0.6,0-0.8,0C30,26.1,29,28.6,29,31c0,1.7,0.5,3,1.5,3.9
			s2.4,1.4,4.2,1.4c3.3,0,6.3-1.6,8.9-4.8c1.6-1.9,2.4-3.8,2.4-5.5c0-0.9-0.3-1.6-0.8-2.2S44,23.1,43,23.1c-1.5,0-3,0.8-4.7,2.3
			s-2.5,3-2.5,4.3c0,0.1,0,0.2,0.1,0.2s0.1,0,0.1-0.1c0.3-0.3,0.6-0.4,0.9-0.4c0.6,0,0.9,0.3,0.9,1c0,0.9-0.4,1.3-1.3,1.3
			c-0.8,0-1.2-0.5-1.2-1.4c0-1.7,0.8-3.3,2.5-5s3.4-2.5,5.2-2.5c2.2,0,3.4,1.2,3.4,3.7c0,2.6-1.2,4.9-3.7,7s-5.2,3.2-8.1,3.2
			c-2.1,0-3.8-0.7-5.2-2.1s-2.1-3.1-2.1-5.2c0-2,0.7-4,2.1-6.1c-5.1-0.9-7.6-2.9-7.6-6c0-1.8,0.9-3.4,2.8-4.6s4.2-1.8,7-1.8
			c3.9,0,7.9,1.3,11.9,3.9c0.7-0.1,1.4-0.2,2.1-0.2C48.1,14.5,49.2,15.1,49.2,16.3z M43.1,14.8c-3.6-2.1-7.4-3.1-11.4-3.1
			c-2.5,0-4.7,0.6-6.5,1.8s-2.8,2.5-2.8,4.1c0,2.8,2.4,4.6,7.1,5.4C32.5,18.9,37,16.2,43.1,14.8z M47.2,18.6
			c-0.9-1.3-2.1-2.5-3.6-3.5c-2.2,0.6-4.3,1.6-6.4,3.1s-3.8,3.1-5.1,5c2.4,0,5.2-0.4,8.1-1.3S45.5,19.9,47.2,18.6z M48.9,16.3
			c0-1-0.9-1.4-2.8-1.4c-0.6,0-1.3,0.1-2.1,0.2c1.4,1,2.5,2.1,3.5,3.4C48.5,17.6,48.9,16.9,48.9,16.3z"/>
		<path class="st1" d="M58.6,30.3c0,0.2-0.6,1-1.9,2.4c-1.4,1.6-3.3,3-5.6,4.2l-0.9,1.5c-1.7,3-3.5,5.3-5.3,6.8
			c-1.9,1.5-3.6,2.3-5,2.3c-0.5,0-0.9-0.2-1.2-0.5s-0.5-0.7-0.5-1.1c0-2.4,2.7-4.8,8.1-7.3c0.4-0.2,1.1-0.5,2-0.9l0.3-0.2l3.1-5.5
			c-1.2,1.7-2.1,2.8-2.7,3.3s-1.1,0.8-1.7,0.8c-0.5,0-0.9-0.2-1.3-0.6s-0.5-0.9-0.5-1.4c0-0.7,0.4-1.7,1.2-3.1l2.7-4.6
			c0.3,0,0.6,0.1,0.9,0.1c0.3,0,0.7,0,1.3-0.1L48.2,32c-1,1.6-1.5,2.6-1.5,3.1s0.2,0.8,0.7,0.8c1.3,0,3.2-2.2,5.8-6.7l1.6-2.8
			c0.3,0,0.6,0.1,1,0.1c0.3,0,0.7,0,1.2-0.1c-1.5,2.3-3.4,5.7-5.9,10.2c1.4-0.7,2.6-1.5,3.6-2.4s2.1-2.1,3.3-3.6
			c0.2-0.2,0.3-0.3,0.3-0.3C58.5,30.2,58.6,30.2,58.6,30.3z M48.4,37.9c-0.2,0.1-0.8,0.4-2,1c-5.3,2.6-8,5-8,7.1
			c0,0.9,0.5,1.3,1.5,1.3c1.2,0,2.5-0.7,3.7-2s2.8-3.7,4.6-7.1L48.4,37.9z"/>
		<path class="st1" d="M68.6,30.3c0,0.1-0.4,0.5-1.1,1.3c-0.9,1-1.7,1.5-2.5,1.5c-0.9,0-1.3-0.5-1.3-1.5c0-0.3,0.1-0.7,0.2-1.2
			c-0.7,0.6-1.3,1.3-1.8,1.9c-0.5,0.6-1.3,1.9-2.4,3.9c-0.6,0-1-0.1-1.1-0.1c0,0-0.4,0-1.1,0.1l2.9-4.7c1.4-2.3,2.2-3.8,2.2-4.4
			c0-0.3-0.1-0.5-0.4-0.5c-0.7,0-1.8,1.3-3.6,3.8c-0.1,0.2-0.2,0.2-0.3,0.2c0,0-0.1,0-0.1-0.1s0-0.1,0.1-0.1l0.3-0.4
			c1.8-2.4,3-3.6,3.7-3.6c0.9,0,1.4,0.6,1.4,1.8c0,0.9-0.5,2.1-1.4,3.6c0.6-0.7,1.2-1.3,1.7-1.7c0.4-1,1-1.9,1.7-2.6
			s1.3-1.1,1.8-1.1c0.4,0,0.5,0.2,0.5,0.5c0,0.6-0.8,1.4-2.4,2.4c-0.3,0.2-0.6,0.4-1.2,0.7l-0.2,0C64,30.5,64,31,64,31.3
			c0,1,0.4,1.5,1.1,1.5c0.9,0,1.9-0.8,3-2.3c0.2-0.3,0.4-0.4,0.4-0.4C68.6,30.2,68.6,30.2,68.6,30.3z"/>
		<path class="st1" d="M80.9,30.3c0,0.2-0.9,1.4-2.6,3.4c-1.4,1.7-2.5,2.5-3.3,2.5c-0.5,0-1-0.2-1.3-0.6s-0.5-0.9-0.5-1.5
			s0.2-1.3,0.6-2.1c-1.2,1.6-2.1,2.7-2.7,3.3s-1.2,0.9-1.8,0.9c-0.6,0-1.1-0.3-1.6-0.8s-0.6-1.2-0.6-2c0-2.2,1.6-4.2,4.8-6
			c1.4-0.8,2.5-1.2,3.4-1.2c0.7,0,1.1,0.4,1.1,1.1c0,0.2,0,0.5-0.1,0.8l0.9-1.7c0.4,0.1,0.7,0.1,0.9,0.1c0.3,0,0.7,0,1.2-0.1
			l-3.1,5.2c-1.1,1.8-1.6,3-1.6,3.6s0.2,0.8,0.7,0.8s1.2-0.5,2.3-1.6s2.1-2.4,3.2-4C80.9,30.3,80.9,30.2,80.9,30.3
			C80.9,30.2,80.9,30.2,80.9,30.3z M76.1,27.4c0-0.6-0.3-0.9-0.8-0.9c-1.1,0-2.5,1.1-4.2,3.2s-2.6,3.8-2.6,5.1c0,0.8,0.3,1.1,1,1.1
			c0.8,0,2.2-1.3,4.2-4C75.3,29.7,76.1,28.2,76.1,27.4z"/>
		<path class="st1" d="M100.5,30.3c0,0-0.1,0.1-0.2,0.3l-0.8,1c-2.2,3.1-3.8,4.6-4.9,4.6c-0.6,0-1-0.2-1.4-0.6s-0.5-0.9-0.5-1.6
			c0-0.7,0.2-1.4,0.7-2.1c0.1-0.1,0.5-0.8,1.3-1.9c1-1.4,1.5-2.3,1.5-2.8s-0.2-0.7-0.7-0.7c-1.5,0-4.2,3.2-8,9.5
			c-0.2,0-0.6-0.1-1-0.1c-0.5,0-0.9,0-1.2,0.1l2.5-4c1.6-2.6,2.4-4.2,2.4-4.8c0-0.5-0.2-0.8-0.7-0.8c-0.6,0-1.7,0.9-3.2,2.8
			s-2.9,4.1-4.4,6.7c-0.3,0-0.6-0.1-1-0.1c-0.5,0-0.9,0-1.2,0.1l2.5-4c1.7-2.7,2.6-4.4,2.6-5c0-0.4-0.1-0.5-0.4-0.5
			c-0.6,0-1.8,1.3-3.6,3.8c-0.1,0.2-0.2,0.2-0.3,0.2c0,0-0.1,0-0.1-0.1s0.5-0.8,1.6-2.2c1.1-1.3,1.9-2,2.4-2c0.4,0,0.7,0.2,1,0.5
			s0.4,0.8,0.4,1.3c0,0.7-0.3,1.6-1,2.8c2.1-3.1,3.7-4.6,4.7-4.6c0.5,0,0.9,0.2,1.2,0.6s0.5,0.9,0.5,1.5c0,0.7-0.3,1.5-0.9,2.5
			c2.2-3.1,3.9-4.6,5-4.6c0.5,0,0.9,0.2,1.3,0.7s0.5,1,0.5,1.6c0,0.7-0.3,1.6-0.9,2.5c0,0-0.5,0.8-1.5,2.2c-0.6,0.8-0.9,1.5-0.9,1.9
			c0,0.5,0.2,0.7,0.7,0.7c0.9,0,2.4-1.5,4.5-4.4l0.5-0.8l0.3-0.4c0.1-0.1,0.1-0.2,0.2-0.2C100.5,30.2,100.5,30.2,100.5,30.3z"/>
		<path class="st1" d="M109.4,30.3c0,0-0.1,0.2-0.3,0.5l-0.8,0.9c-2.4,3-4.5,4.5-6.2,4.5c-0.8,0-1.5-0.3-2.1-0.9s-0.8-1.3-0.8-2.2
			c0-2.1,1.5-4,4.4-5.6c1.5-0.8,2.8-1.3,3.8-1.3c0.4,0,0.8,0.1,1.1,0.4s0.4,0.6,0.4,0.9c0,0.8-0.6,1.6-1.7,2.2s-2.9,1.1-5.5,1.7
			c-0.8,1.2-1.2,2.2-1.2,3c0,1,0.5,1.5,1.6,1.5c1.9,0,4.1-1.8,6.8-5.4c0.1-0.2,0.3-0.3,0.4-0.3C109.4,30.2,109.4,30.2,109.4,30.3z
			 M107.9,27c0-0.4-0.2-0.6-0.6-0.6c-0.6,0-1.4,0.4-2.5,1.3s-2,2-3,3.3c1.7-0.4,3.1-1,4.3-1.8S107.9,27.7,107.9,27z"/>
		<path class="st0" d="M121.8,30.3c0,0.2-0.9,1.4-2.6,3.4c-1.4,1.7-2.5,2.5-3.3,2.5c-0.5,0-1-0.2-1.3-0.6s-0.5-0.9-0.5-1.5
			s0.2-1.3,0.6-2.1c-1.2,1.6-2.1,2.7-2.7,3.3s-1.2,0.9-1.8,0.9c-0.6,0-1.1-0.3-1.6-0.8s-0.6-1.2-0.6-2c0-2.2,1.6-4.2,4.8-6
			c1.4-0.8,2.5-1.2,3.4-1.2c0.7,0,1.1,0.4,1.1,1.1c0,0.2,0,0.5-0.1,0.8l0.9-1.7c0.4,0.1,0.7,0.1,0.9,0.1c0.3,0,0.7,0,1.2-0.1
			l-3.1,5.2c-1.1,1.8-1.6,3-1.6,3.6s0.2,0.8,0.7,0.8s1.2-0.5,2.3-1.6s2.1-2.4,3.2-4C121.8,30.3,121.8,30.2,121.8,30.3
			C121.7,30.2,121.8,30.2,121.8,30.3z M116.9,27.4c0-0.6-0.3-0.9-0.8-0.9c-1.1,0-2.5,1.1-4.2,3.2s-2.6,3.8-2.6,5.1
			c0,0.8,0.3,1.1,1,1.1c0.8,0,2.2-1.3,4.2-4C116.1,29.7,116.9,28.2,116.9,27.4z"/>
		<path class="st0" d="M131.8,30.3c0,0.1-0.4,0.5-1.1,1.3c-0.9,1-1.7,1.5-2.5,1.5c-0.9,0-1.3-0.5-1.3-1.5c0-0.3,0.1-0.7,0.2-1.2
			c-0.7,0.6-1.3,1.3-1.8,1.9c-0.5,0.6-1.3,1.9-2.4,3.9c-0.6,0-1-0.1-1.1-0.1c0,0-0.4,0-1.1,0.1l2.9-4.7c1.4-2.3,2.2-3.8,2.2-4.4
			c0-0.3-0.1-0.5-0.4-0.5c-0.7,0-1.8,1.3-3.6,3.8c-0.1,0.2-0.2,0.2-0.3,0.2c0,0-0.1,0-0.1-0.1s0-0.1,0.1-0.1l0.3-0.4
			c1.8-2.4,3-3.6,3.7-3.6c0.9,0,1.4,0.6,1.4,1.8c0,0.9-0.5,2.1-1.4,3.6c0.6-0.7,1.2-1.3,1.7-1.7c0.4-1,1-1.9,1.7-2.6
			s1.3-1.1,1.8-1.1c0.4,0,0.5,0.2,0.5,0.5c0,0.6-0.8,1.4-2.4,2.4c-0.3,0.2-0.6,0.4-1.2,0.7l-0.2,0.2c-0.2,0.5-0.2,1-0.2,1.3
			c0,1,0.4,1.5,1.1,1.5c0.9,0,1.9-0.8,3-2.3c0.2-0.3,0.4-0.4,0.4-0.4C131.8,30.2,131.8,30.2,131.8,30.3z"/>
		<path class="st0" d="M138.3,26.2l-0.1,0.3h-2.3l-3.9,6.7c-0.5,0.8-0.7,1.5-0.7,1.9c0,0.5,0.3,0.8,0.8,0.8c1.1,0,2.9-1.9,5.4-5.6
			c0.1-0.1,0.2-0.2,0.2-0.2c0.1,0,0.1,0,0.1,0.1c0,0-0.1,0.1-0.2,0.3l-0.8,1c-2.2,3.1-3.9,4.6-5,4.6c-0.6,0-1-0.2-1.4-0.6
			s-0.6-0.9-0.6-1.5c0-0.7,0.3-1.6,0.9-2.6l3-5H132l0.2-0.3h1.8l2.1-3.4c0.4,0.1,0.7,0.1,1,0.1s0.7,0,1-0.1l-2,3.4h2.2V26.2z"/>
	</g>
</g>
</svg>
