<?xml version="1.0" encoding="utf-8"?>
<!-- Generator: Adobe Illustrator 26.4.1, SVG Export Plug-In . SVG Version: 6.00 Build 0)  -->
<svg version="1.1" id="Layer_1" xmlns="http://www.w3.org/2000/svg" xmlns:xlink="http://www.w3.org/1999/xlink" x="0px" y="0px"
	 viewBox="0 0 259 110" style="enable-background:new 0 0 259 110;" xml:space="preserve">
<style type="text/css">
	.st0{fill:#FEBF10;}
	.st1{fill:#FEE778;}
	.st2{fill:#FFD447;}
</style>
<g>
	<path class="st0" d="M6.5,73.5c0,0,13.4,7,30,2.3C36.5,75.8,29.5,68.7,6.5,73.5z"/>
	<path class="st0" d="M25.1,62.6c0,0,12.6,11,32,7.8C57.1,70.4,51.3,60.1,25.1,62.6z"/>
	<path class="st0" d="M77.1,66.3c0,0-5.8-10.1-32.9-9C44.1,57.3,57,68.5,77.1,66.3z"/>
	<path class="st0" d="M91.7,40.2c-0.3,0-0.6-0.1-0.8-0.2c0,0,0.1,0.2,0.4,0.5C91.3,40.4,91.5,40.3,91.7,40.2z"/>
	<path class="st0" d="M152.1,58.5c0,0-4.4-15.3-42.3-22.8C109.9,35.7,123.7,54.8,152.1,58.5z"/>
	<path class="st0" d="M177.9,55.5c-19-18.4-44-20.1-44-20.1C161.5,59,177.9,55.5,177.9,55.5z"/>
	<path class="st0" d="M206.3,57.1c-19-18.4-44-20.1-44-20.1C189.9,60.5,206.3,57.1,206.3,57.1z"/>
	<path class="st1" d="M143.3,87.1c37.4-8.2,42.9-22.2,42.9-22.2C158.3,69.3,143.3,87.1,143.3,87.1z"/>
	<path class="st1" d="M156.5,64.6c-27.9,4.5-42.9,22.2-42.9,22.2C151,78.6,156.5,64.6,156.5,64.6z"/>
	<path class="st1" d="M92.6,90.5c26.9-14.1,28-25.8,28-25.8C100.1,73.9,92.6,90.5,92.6,90.5z"/>
	<path class="st1" d="M101.3,67c0,0,0.1-0.1,0.1-0.1c-1.3,0.6-2.6,1.2-3.8,1.8c0.6-0.1,1.2-0.2,1.8-0.4
		C100.1,67.9,100.8,67.5,101.3,67z"/>
	<path class="st1" d="M52,90.5c23.7-9.9,25.8-19.6,25.8-19.6C59.9,77.2,52,90.5,52,90.5z"/>
	<path class="st1" d="M30.8,96.5C54,83.8,57.4,75.2,57.4,75.2C40.1,83.8,30.8,96.5,30.8,96.5z"/>
	<path class="st0" d="M92.5,42.3c4,4.7,14.9,15.3,33.9,17.1c0,0-2-9.2-20.1-15.5c-0.5-0.2-1.1-0.4-1.6-0.5c-3.1-1-6.6-1.9-10.5-2.7
		c-0.8-0.2-1.6-0.3-2.5-0.4c-0.2,0.1-0.3,0.2-0.5,0.4C91.5,41,91.9,41.5,92.5,42.3z"/>
	<path class="st1" d="M100.6,69.4c0.9-1.7,1.1-2.7,1.1-2.7c-0.1,0-0.2,0.1-0.2,0.1c0,0-0.1,0.1-0.1,0.1c-0.5,0.5-1.2,0.9-1.9,1.2
		c-0.6,0.2-1.1,0.4-1.8,0.4c-1.1,0.6-2.2,1.2-3.3,1.8C81.7,78,76.6,88.1,76.6,88.1C92.8,80.3,98.6,73.2,100.6,69.4z"/>
	<path class="st2" d="M70.6,51.4c1.4,1.1,3.2,2.3,5.3,3.6c1.9,1.1,4,2.1,6.5,3.1c0.9,0.4,1.9,0.7,2.9,1c4.8,1.5,10.4,2.5,16.9,2.1
		c0,0-0.7-1.8-3.1-4c-1.8-1.7-4.6-3.6-8.8-5.2c-1.4-0.6-3-1.1-4.7-1.6c-0.8-0.2-1.7-0.5-2.6-0.7c-0.6-0.1-1.2-0.3-1.8-0.4
		c-0.5-0.1-1-0.2-1.5-0.3c-1.9-0.3-3.9-0.6-6.2-0.8c-0.9-0.1-1.9-0.2-2.8-0.2c-1.3-0.1-2.6-0.1-4-0.2C66.8,47.9,68.1,49.4,70.6,51.4
		z"/>
	<path class="st0" d="M156.5,63.4c25-0.9,42.7,0,55.1,1.6c1.2,0.2,2.4,0.3,3.5,0.5c7,1,12,2.3,15.6,3.5c1.2,0.4,2.3,0.8,3.2,1.2
		c3.9,1.6,5.1,2.8,5.1,2.8l2.7-3.7c-2-1.3-4.6-2.5-7.8-3.4c-1-0.3-2.1-0.6-3.2-0.9c-4.5-1.1-9.7-1.9-15.3-2.5
		c-1.1-0.1-2.1-0.2-3.2-0.3c-25.9-2.4-57.5-0.7-57.5-0.7C64.4,60.3,20,85.8,20,85.8l-2.8,1.7C74.9,59.9,156.5,63.4,156.5,63.4z"/>
</g>
</svg>
