<?xml version="1.0" encoding="utf-8"?>
<!-- Generator: Adobe Illustrator 26.4.1, SVG Export Plug-In . SVG Version: 6.00 Build 0)  -->
<svg version="1.1" id="Layer_1" xmlns="http://www.w3.org/2000/svg" xmlns:xlink="http://www.w3.org/1999/xlink" x="0px" y="0px"
	 viewBox="0 0 107 53.1" style="enable-background:new 0 0 107 53.1;" xml:space="preserve">
<style type="text/css">
	.st0{fill:#B76728;stroke:#050606;stroke-width:0.25;stroke-miterlimit:10;}
	.st1{fill:#F9AC1E;stroke:#050606;stroke-width:0.25;stroke-miterlimit:10;}
	.st2{fill:#195D2F;}
	.st3{fill:#B7D434;}
	.st4{fill:#B76728;}
	.st5{font-family:'CowboyHippiePro';}
	.st6{font-size:35.174px;}
	.st7{fill:#050606;}
	.st8{fill:#FFFFFF;}
	.st9{fill:#F2EA29;}
	.st10{opacity:0.66;fill:#B7D434;}
</style>
<g>
	<path class="st0" d="M72.8,38.5l0.2-6.3c0,0,0.2-3.2,1.8-3.4c1.4-0.2,2.4-0.8,2.8-1.2c0.1,0,0.1-0.1,0.1-0.1
		c0.4-0.4-0.1,1.2,8.3-2.3c0,0,3.5-1.1,4.2-1c0,0,7.7-3.2,11.8-5.2c0,0-5.2,5.9-5.6,6.3c0,0,3-1.7,3.4-2.1c0,0-2.7,3.3-3.3,3.7
		l2.5-0.8c0,0-1.8,1.6-2.7,2.2l2.2-0.3c0,0-2.4,1.5-3.2,1.8l1.8,0c0,0-1.7,1.1-2.8,1.3l1.4,0.2c0,0-1.7,0.7-2.5,0.8
		c-0.8,0.1,0.5,0.6,0.5,0.6s-0.9,0.4-2.3,0.5l0.6,0.3c0,0-1.6,0.1-2.5-0.1l0.9,0.7c0,0-2.1,0-3-0.2l0.9,0.6c0,0-2.1,0.4-3.1-0.1
		l1.1,0.9c0,0-1.3,0.3-2.8-0.2l0.8,0.7c1.6,0.3-0.7,0.7-2.8-0.1l0.4,0.8c0,0-1.4,0.3-2.1-0.1c-0.1,0-0.1-0.1-0.2-0.1
		c-0.6-0.6,0.8,0.8,0.8,0.8s-1.2,0.1-2.2-0.4l0.5,0.9c0,0-1,0.2-1.9-0.2l0.5,1c0,0-1.1,0.3-2.6-0.2l0.3,1.2
		C75.2,39.2,72.8,39.7,72.8,38.5z"/>
	<g>
		<path class="st1" d="M95.7,25.5c0,0-2.8,0.8-3.6,0.8c0,0-0.8,0.1-1.1,0.6c0,0,0.4,0.3,0.8,0.3c0,0,0.1,0,0.1,0
			c0.4,0,2.5-0.1,3.3-0.7c0,0,1.1-0.7,1.2-0.9l0-0.2"/>
		<path class="st1" d="M90.5,28.2c0,0,0.8-0.5,1.2-0.4c0,0,2.8-0.5,3.4-0.7c0,0,0.1,0,0.1,0l0.8-0.3c0,0-0.1,0.8-1.6,1.1
			C94.5,27.9,91.4,28.4,90.5,28.2z"/>
		<path class="st1" d="M90,28.9c0,0,1.9,0,2-0.1c0,0,2.8-0.1,3.3-0.3c0,0,0,0,0.1,0c0.1-0.2,0.1,0.6-1.2,0.7
			C94.1,29.1,90.4,29.2,90,28.9z"/>
		<path class="st1" d="M89,29.5c0,0,5,0.5,5.2,0.5c0,0-0.2,0.7-1.8,0.4L89,29.5z"/>
		<path class="st1" d="M88,29.8c0,0,4.8,1.4,5,1.4c0,0-0.4,0.7-1.8,0.1L88,29.8z"/>
		<path class="st1" d="M87.1,30.1c0,0,4.7,1.9,4.9,1.9c0,0-0.4,0.6-1.8-0.1L87.1,30.1z"/>
		<path class="st1" d="M85.7,30.2c0,0,4.3,2.5,4.5,2.6c0,0-0.5,0.6-1.8-0.4L85.7,30.2z"/>
		<path class="st1" d="M84.1,30.2c0,0,4,3,4.2,3.1c0,0-0.6,0.5-1.7-0.6L84.1,30.2z"/>
		<path class="st1" d="M82.5,30.7c0,0,3.9,3.2,4.1,3.3c0,0-0.6,0.5-1.7-0.7L82.5,30.7z"/>
		<path class="st1" d="M80.6,31.1c0,0,3.7,3.4,3.9,3.5c0,0-0.6,0.4-1.7-0.8L80.6,31.1z"/>
		<path class="st1" d="M79,31.7c0,0,3.5,3.6,3.6,3.7c0,0-0.7,0.4-1.6-0.9L79,31.7z"/>
		<path class="st1" d="M77.5,32.1c0,0,3.1,3.9,3.3,4c0,0-0.7,0.3-1.5-1L77.5,32.1z"/>
		<path class="st1" d="M75.9,32.3c0,0,3.1,3.9,3.3,4.1c0,0-0.7,0.3-1.5-1L75.9,32.3z"/>
		<path class="st1" d="M74.3,32.7c0,0,3,4,3.1,4.2c0,0-0.7,0.3-1.5-1.1L74.3,32.7z"/>
	</g>
</g>
<g>
	<path class="st2" d="M21.4,28.7V8.4h2.3v4.5l4.5-4.5h4.5v6.8h-6.8c-1.2,0-2.3,1-2.3,2.3v2.3c0,1.3,1,2.3,2.3,2.3h6.8v6.8h-4.5
		l-4.5-4.5v4.5H21.4z"/>
	<path class="st2" d="M37.1,28.7c-1.3,0-2.3-1-2.3-2.3V10.7c0-1.2,1-2.3,2.3-2.3h4.5c1.2,0,2.3,1.1,2.3,2.3V8.4h2.3v20.3h-2.3v-2.3
		c0,1.3-1.1,2.3-2.3,2.3H37.1z M41.6,21.9c1.2,0,2.3-1,2.3-2.3v-2.3c0-1.2-1.1-2.3-2.3-2.3h-2.3c-1.2,0-2.3,1-2.3,2.3v2.3
		c0,1.3,1,2.3,2.3,2.3H41.6z"/>
	<path class="st2" d="M48.4,35.4v-4.5h6.8c1.2,0,2.3-1.1,2.3-2.3v-2.3c0,1.3-1.1,2.3-2.3,2.3h-4.5c-1.3,0-2.3-1-2.3-2.3v-18h2.3
		v11.3c0,1.3,1,2.3,2.3,2.3h2.3c1.2,0,2.3-1,2.3-2.3V8.4h2.3v24.8c0,1.2-1.1,2.3-2.3,2.3H48.4z"/>
	<path class="st3" d="M65.3,20.6C65.3,20.6,65.3,20.6,65.3,20.6C65.3,20.5,65.3,20.6,65.3,20.6z"/>
	<path class="st3" d="M65.4,20.6C65.4,20.6,65.4,20.6,65.4,20.6C65.4,20.6,65.4,20.6,65.4,20.6C65.4,20.6,65.4,20.6,65.4,20.6z"/>
</g>
<path class="st2" d="M59.8,42.2c1-1.5,1.9-2.7,2.1-2.9c0.1,0,0.1-0.1,0.2-0.1c0.4-0.2,1.4,0.1,1.4,0.1c-0.3-0.4-1.5-0.2-1.5-0.2
	c0.1-0.4,1-1.1,1-1.1c0.4,0.3,2-0.1,2-0.1c-0.9,0.1-1.8-0.2-1.8-0.2L64,37l0.3,0c0.2,0.2,2.4-0.1,2.4-0.1l-1,0
	c-0.7,0.1-1.4-0.2-1.4-0.2c0.2-0.5,0.9-0.8,0.9-0.8c0-0.2,1.8-0.4,1.6-0.4c-0.1,0-1,0-1,0l0.2-0.2c0.4-0.8,1.2-0.7,1.2-0.7
	c0.1,0,2.1-0.7,0.2-0.1c-0.1,0,0-0.2,0-0.2s0.1-1,0-1c-0.1,0.1-0.2,1-0.2,1c-0.1,0.2-0.9,0.4-0.9,0.4c0,0,0,0,0,0
	c0-0.4,0.2-1.2,0.2-1.2c-0.3,0.6-0.4,1.5-0.4,1.5c-0.1,0.4-1.3,0.9-1.3,0.9c0.1-0.6-0.1-1.6-0.1-1.6c-0.1,0.5,0,1.3,0,1.3
	c0,0.7-1.3,1.8-1.3,1.8c-0.1-1-0.9-2.6-0.9-2.6c0.3,1,0.6,2.2,0.6,2.2c0.2,0.5-1,1.5-1,1.5c-0.1-0.7-0.5-1.4-0.5-1.4s0,0,0-0.1
	c0,0,0,0,0,0c0-0.1,0-0.1,0,0c0.1,0.2,0.3,1.4,0.3,1.4c0.1,0.6-0.8,1.6-0.8,1.6c-0.1-0.5-0.2-1.5-0.2-1.5c0.1,0.5,0.1,1.7,0.1,1.7
	c0.1,0.2-0.5,1.2-0.9,1.7c0.1-1.2,0.2-2.8,0.3-4c0,0,0.3-3.7,3.9-5.2c0,0,7.9-2.7,8-3.1c0,0-1.4,3.5-1.8,5.5c0,0-0.9,3.7-3.9,5.4
	l-5.2,1.9c-0.1,0-0.1,0.1-0.2,0.1c0,0,0,0,0,0c-0.1,0.2-0.6,0.7-0.7,1.4c0,0,0,1,0,2.1c0,1.4,0,3,0,3.3l-0.5-0.3l0-5.1
	C59.6,43.7,59.7,43.1,59.8,42.2z"/>
<text transform="matrix(1 0 0 1 6.751 49.4155)" class="st4 st5 st6">Tea</text>
<g>
	<path class="st4" d="M67.5,29.1l1.2-1.2l1.9-0.5l1.2-3.1l1.2-0.2c0,0-0.1,0.4,0.2,0c0.2-0.3,0.1-7,0-9.8h-5.7L67.5,29.1z"/>
	<path class="st4" d="M72.6,10.9c-0.4-4.3-5-3.7-5-3.7l0,7.2h5.7c0-0.8,0-1.3,0-1.3C72.8,11.2,72.6,10.9,72.6,10.9z"/>
	<path class="st4" d="M62.3,10.9c0,0-0.2,0.3-0.6,2.2c0,0,0,0.5,0,1.2h5.7l0-7.1C67.3,7.2,62.7,6.6,62.3,10.9z"/>
	<path class="st4" d="M61.7,24.2c0.3,0.4,0.2,0,0.2,0l1.2,0.2l1.2,3.1l1.9,0.5l1.2,1.2l-0.1-14.8h-5.7
		C61.6,17.1,61.5,23.8,61.7,24.2z"/>
	<path class="st2" d="M69.9,13v-1.8c0,0,0.1-0.5,0.5-0.4c0,0,1.5-0.2,1.7,0c0,0,0.9-0.1,1,2l-0.1,0.4L70,13"/>
	<path class="st7" d="M73.2,17.4c0,0,0-4-0.1-4.3c0,0-0.4-1.1-1.5-0.7c0,0-1-0.1-1.8,0.4l-1.1,1l-0.2,0.6c0,0,0,0.9,0.6,1.5
		c0,0,1.3,1.6,2.7,1.7C71.9,17.5,72.6,17.6,73.2,17.4z"/>
	<path class="st8" d="M72,16.4c0.6,0,1.1-0.7,1.1-1.3c0-0.4-0.2-0.8-0.8-1.4L72,13.5l-0.1-0.1c-1.3-0.3-2.2,0.4-2.5,0.8l-0.4,0.1
		c0-0.2,0.2-0.9,0.9-1.5c0,0-1.5,0.4-2.2,0.2v1.4L69,15c0.1,0,0.3,0.5,0.4,0.5l1,0.6c0.2,0.1,1,0.3,1.2,0.2L72,16.4z"/>
	<path class="st8" d="M67.6,14.7l0.5,0c0.2-0.1,0.6,0.3,0.6,0.3c0.1,0.9,2.2,4.7,2.2,4.7c-2.4,0.9-3.1,6.4-3.1,6.4"/>
	<path class="st9" d="M69.6,14.4c0.4-0.3,1.3-0.7,1.9-0.7c0,0,0.1,0,0.1,0c0.3,0.1,1.1,0.5,1.1,1.4c0,0,0.2,0.7-1.2,1
		c0,0-1.8-0.2-2.2-1.3C69.4,14.7,69.5,14.5,69.6,14.4z"/>
	<path class="st7" d="M72.4,19.8c0,0-3.6,2.6-4.1,4s0.4-2.2,2-3.4"/>
	<circle class="st7" cx="71.2" cy="15" r="1.1"/>
	<path class="st2" d="M73.2,24.1L71.6,24c0,0,0.1,1.8-1.6,3.2c0,0-1.8,0.8-2.3,0.5l-0.1,1.4c0,0,2,0.1,2.7,0.1c0.1,0,0.2,0,0.2-0.1
		c0.3-0.2,1.1,0,1.9-1.1C72.3,28.1,72.9,26.5,73.2,24.1z"/>
	<path class="st2" d="M65,13.1v-1.8c0,0-0.1-0.5-0.5-0.4c0,0-1.5-0.2-1.7,0c0,0-0.9-0.1-1,2l0.1,0.4l2.9-0.2"/>
	<path class="st7" d="M61.7,17.4c0,0,0-4,0.1-4.3c0,0,0.4-1.1,1.5-0.7c0,0,1-0.1,1.8,0.4l1.1,1l0.2,0.6c0,0,0,0.9-0.6,1.5
		c0,0-1.3,1.6-2.7,1.7C63,17.5,62.3,17.7,61.7,17.4z"/>
	<path class="st8" d="M62.9,16.4c-0.6,0-1.1-0.7-1.1-1.3c0-0.4,0.2-0.8,0.8-1.4l0.3-0.2l0.1-0.1c1.3-0.3,2.2,0.4,2.5,0.8l0.4,0.1
		c0-0.2-0.2-0.9-0.9-1.5c0,0,1.5,0.4,2.2,0.2v1.4L65.9,15c-0.1,0-0.3,0.5-0.4,0.5l-1,0.6c-0.2,0.1-1,0.3-1.2,0.2L62.9,16.4z"/>
	<path class="st8" d="M67.3,14.8l-0.5,0c-0.2-0.1-0.6,0.3-0.6,0.3c-0.1,0.9-2.2,4.7-2.2,4.7c2.4,0.9,3.1,6.4,3.1,6.4"/>
	<path class="st9" d="M65.3,14.5c-0.4-0.3-1.3-0.7-1.9-0.7c0,0-0.1,0-0.1,0c-0.3,0.1-1.1,0.5-1.1,1.4c0,0-0.2,0.7,1.2,1
		c0,0,1.8-0.2,2.2-1.3C65.5,14.8,65.4,14.6,65.3,14.5z"/>
	<path class="st7" d="M62.5,19.9c0,0,3.6,2.6,4.1,4c0.6,1.4-0.4-2.2-2-3.4"/>
	<circle class="st7" cx="63.7" cy="15" r="1.1"/>
	<path class="st2" d="M61.7,24.2l1.7-0.1c0,0-0.1,1.8,1.6,3.2c0,0,1.8,0.8,2.3,0.5l0.1,1.4c0,0-2,0.1-2.7,0.1c-0.1,0-0.2,0-0.2-0.1
		c-0.3-0.2-1.1,0-1.9-1.1C62.6,28.1,61.9,26.5,61.7,24.2z"/>
	<path class="st3" d="M66.4,9.9C66.4,9.9,66.4,9.9,66.4,9.9C66.4,9.9,66.4,9.9,66.4,9.9z"/>
	<path class="st3" d="M67,9.4"/>
	<path class="st10" d="M62.8,7.3C62.8,7.3,62.8,7.3,62.8,7.3C62.8,7.3,62.9,7.4,62.8,7.3z"/>
	<path class="st3" d="M65.3,7.5C65.3,7.5,65.3,7.5,65.3,7.5C65.3,7.5,65.3,7.5,65.3,7.5z"/>
	<path class="st3" d="M62.7,7.7c-0.1,0-0.2,0.1-0.2,0.1C62.6,7.8,62.7,7.8,62.7,7.7z"/>
	<path class="st3" d="M62.8,7.2C62.8,7.2,62.8,7.2,62.8,7.2C62.8,7.3,62.8,7.3,62.8,7.2C62.8,7.3,62.8,7.2,62.8,7.2z"/>
</g>
</svg>
