<?xml version="1.0" encoding="utf-8"?>
<!-- Generator: Adobe Illustrator 26.4.1, SVG Export Plug-In . SVG Version: 6.00 Build 0)  -->
<svg version="1.1" id="Layer_1" xmlns="http://www.w3.org/2000/svg" xmlns:xlink="http://www.w3.org/1999/xlink" x="0px" y="0px"
	 viewBox="0 0 107 90" style="enable-background:new 0 0 107 90;" xml:space="preserve">
<style type="text/css">
	.st0{fill:#1A98D5;}
	.st1{fill:#B7D434;}
	.st2{fill:#195D2F;}
	.st3{fill:#B76728;}
	.st4{font-family:'CowboyHippiePro';}
	.st5{font-size:48px;}
	.st6{fill:#050606;}
	.st7{fill:#FFFFFF;}
	.st8{fill:#F2EA29;}
	.st9{opacity:0.66;fill:#B7D434;}
</style>
<g>
	<path d="M27.5,48.8V21.2h3.1v6.1l6.1-6.1h6.1v9.2h-9.2c-1.7,0-3.1,1.4-3.1,3.1v3.1c0,1.7,1.3,3.1,3.1,3.1h9.2v9.2h-6.1l-6.1-6.1
		v6.1H27.5z"/>
	<path class="st0" d="M49,48.8c-1.7,0-3.1-1.3-3.1-3.1V24.2c0-1.7,1.4-3.1,3.1-3.1h6.1c1.7,0,3.1,1.4,3.1,3.1v-3.1h3.1v27.7h-3.1
		v-3.1c0,1.7-1.4,3.1-3.1,3.1H49z M55.1,39.6c1.7,0,3.1-1.4,3.1-3.1v-3.1c0-1.6-1.4-3.1-3.1-3.1h-3.1c-1.7,0-3.1,1.4-3.1,3.1v3.1
		c0,1.7,1.3,3.1,3.1,3.1H55.1z"/>
	<path d="M64.3,58v-6.1h9.2c1.6,0,3.1-1.4,3.1-3.1v-3.1c0,1.7-1.4,3.1-3.1,3.1h-6.1c-1.7,0-3.1-1.3-3.1-3.1V21.2h3.1v15.4
		c0,1.7,1.3,3.1,3.1,3.1h3.1c1.7,0,3.1-1.4,3.1-3.1V21.2h3.1V55c0,1.7-1.4,3.1-3.1,3.1H64.3z"/>
	<path class="st1" d="M87.5,37.8C87.5,37.8,87.5,37.8,87.5,37.8C87.3,37.7,87.4,37.7,87.5,37.8z"/>
	<path class="st1" d="M87.5,37.8c0,0,0.1,0,0.1,0C87.6,37.8,87.5,37.8,87.5,37.8C87.6,37.9,87.5,37.8,87.5,37.8z"/>
</g>
<path class="st2" d="M9.7,39c1.3-2.1,2.6-3.7,2.9-4c0.1,0,0.2-0.1,0.2-0.1c0.6-0.3,1.8,0.1,1.8,0.1c-0.4-0.6-2.1-0.3-2.1-0.3
	c0.1-0.6,1.4-1.4,1.4-1.4c0.6,0.4,2.7-0.2,2.7-0.2c-1.2,0.1-2.4-0.2-2.4-0.2l1.1-1l0.4,0c0.3,0.3,3.3-0.1,3.3-0.1l-1.3,0
	c-0.9,0.1-1.9-0.3-1.9-0.3c0.3-0.7,1.2-1.2,1.2-1.2c0-0.2,2.5-0.5,2.1-0.5c-0.1,0-1.4,0-1.4,0l0.3-0.3c0.5-1,1.6-1,1.6-1
	c0.2,0,2.8-1,0.3-0.2c-0.1,0,0-0.2,0-0.2s0.1-1.4,0-1.3C20,26.8,19.8,28,19.8,28c-0.1,0.3-1.3,0.5-1.3,0.5c0,0,0,0,0-0.1
	c0-0.5,0.2-1.6,0.2-1.6c-0.4,0.8-0.6,2-0.6,2c-0.2,0.6-1.7,1.2-1.7,1.2c0.1-0.8-0.2-2.2-0.2-2.2c-0.1,0.7,0.1,1.8,0.1,1.8
	c0,1-1.8,2.4-1.8,2.4c-0.1-1.4-1.2-3.5-1.2-3.5c0.4,1.3,0.8,3,0.8,3c0.2,0.7-1.4,2-1.4,2c-0.2-0.9-0.7-2-0.7-2s0,0.1,0-0.1
	c0,0,0,0,0,0c0-0.1,0-0.1,0,0c0.1,0.3,0.4,1.9,0.4,1.9c0.2,0.9-1.2,2.2-1.2,2.2c-0.1-0.7-0.3-2.1-0.3-2.1C11,34.3,11,36,11,36
	c0.1,0.3-0.7,1.6-1.2,2.4c0.1-1.7,0.3-3.8,0.4-5.4c0,0,0.4-5.1,5.3-7.1c0,0,10.8-3.7,10.9-4.3c0,0-1.9,4.8-2.5,7.5
	c0,0-1.2,5-5.3,7.3l-7,2.5c-0.1,0-0.2,0.1-0.2,0.2c0,0,0,0,0,0c-0.2,0.2-0.8,0.9-1,1.9c0,0,0,1.3-0.1,2.9c0,1.9-0.1,4.1,0,4.5
	L9.6,48l-0.1-7C9.5,41,9.6,40.1,9.7,39z"/>
<text transform="matrix(1 0 0 1 7.5043 77.1267)"><tspan x="0" y="0" class="st3 st4 st5">Te</tspan><tspan x="36.9" y="0" class="st2 st4 st5">a</tspan></text>
<g>
	<path class="st3" d="M90.4,49.5l1.7-1.6l2.6-0.7l1.7-4.3l1.6-0.2c0,0-0.1,0.6,0.2,0c0.3-0.5,0.1-9.5,0-13.4h-7.8L90.4,49.5z"/>
	<path class="st3" d="M97.3,24.5c-0.6-5.8-6.9-5-6.9-5l0,9.8h7.8c0-1.1,0-1.7,0-1.7C97.7,24.9,97.3,24.5,97.3,24.5z"/>
	<path class="st3" d="M83.3,24.5c0,0-0.3,0.4-0.8,3c0,0,0,0.7,0,1.7h7.8l0-9.7C90.1,19.5,83.9,18.7,83.3,24.5z"/>
	<path class="st3" d="M82.4,42.7c0.4,0.6,0.2,0,0.2,0l1.6,0.2l1.7,4.3l2.6,0.7l1.7,1.6l-0.1-20.2h-7.8
		C82.3,33.1,82.2,42.2,82.4,42.7z"/>
	<path class="st6" d="M93.6,27.5v-2.4c0,0,0.2-0.6,0.7-0.6c0,0,2-0.2,2.3,0c0,0,1.2-0.2,1.4,2.7l-0.2,0.6l-4-0.3"/>
	<path class="st0" d="M98.2,33.4c0,0,0-5.5-0.1-5.9c0,0-0.5-1.5-2-1c0,0-1.4-0.1-2.5,0.6l-1.5,1.3l-0.2,0.8c0,0,0,1.2,0.8,2
		c0,0,1.8,2.2,3.7,2.4C96.4,33.6,97.4,33.8,98.2,33.4z"/>
	<path class="st7" d="M96.6,32c0.9-0.1,1.5-1,1.4-1.8c0-0.6-0.3-1-1.1-1.9l-0.3-0.2L96.4,28c-1.8-0.4-3,0.6-3.5,1l-0.6,0.1
		c0-0.3,0.2-1.2,1.3-2.1c0,0-2.1,0.6-3,0.3v2l1.8,0.8c0.1,0.1,0.4,0.6,0.5,0.7l1.4,0.9c0.2,0.2,1.4,0.4,1.6,0.3L96.6,32z"/>
	<path class="st7" d="M90.5,29.8l0.6,0c0.3-0.1,0.8,0.4,0.8,0.4c0.1,1.2,2.9,6.4,2.9,6.4c-3.3,1.2-4.2,8.7-4.2,8.7"/>
	<path class="st8" d="M93.3,29.4c0.6-0.4,1.8-1,2.6-0.9c0.1,0,0.1,0,0.2,0c0.3,0.1,1.5,0.6,1.6,2c0,0,0.2,1-1.6,1.4
		c0,0-2.5-0.2-3-1.7C93,29.8,93.1,29.5,93.3,29.4z"/>
	<path class="st6" d="M97.1,36.7c0,0-4.9,3.6-5.6,5.5c-0.8,1.9,0.6-3,2.7-4.7"/>
	<circle class="st6" cx="95.5" cy="30.1" r="1.5"/>
	<path class="st6" d="M98.2,42.6L96,42.5c0,0,0.2,2.4-2.2,4.4c0,0-2.5,1.1-3.2,0.7l-0.1,1.9c0,0,2.7,0.2,3.7,0.1
		c0.1,0,0.2,0,0.3-0.1c0.4-0.3,1.4,0.1,2.6-1.5C97,48,97.8,45.8,98.2,42.6z"/>
	<path class="st6" d="M87,27.5v-2.4c0,0-0.2-0.6-0.7-0.6c0,0-2-0.2-2.3,0c0,0-1.2-0.2-1.4,2.7l0.2,0.6l4-0.3"/>
	<path class="st0" d="M82.4,33.4c0,0,0-5.5,0.1-5.9c0,0,0.5-1.5,2-1c0,0,1.4-0.1,2.5,0.6l1.5,1.3l0.2,0.8c0,0,0,1.2-0.8,2
		c0,0-1.8,2.2-3.7,2.4C84.3,33.6,83.3,33.8,82.4,33.4z"/>
	<path class="st7" d="M84.1,32.1c-0.9-0.1-1.5-1-1.4-1.8c0-0.6,0.3-1,1.1-1.9l0.3-0.2l0.2-0.1c1.8-0.4,3,0.6,3.5,1l0.6,0.1
		c0-0.3-0.2-1.2-1.3-2.1c0,0,2.1,0.6,3,0.3v2l-1.8,0.8c-0.1,0.1-0.4,0.6-0.5,0.7l-1.4,0.9c-0.2,0.2-1.4,0.4-1.6,0.3L84.1,32.1z"/>
	<path class="st7" d="M90.1,29.8l-0.6,0c-0.3-0.1-0.8,0.4-0.8,0.4c-0.1,1.2-2.9,6.4-2.9,6.4c3.3,1.2,4.2,8.7,4.2,8.7"/>
	<path class="st8" d="M87.3,29.4c-0.6-0.4-1.8-1-2.6-0.9c-0.1,0-0.1,0-0.2,0c-0.3,0.1-1.5,0.6-1.6,2c0,0-0.2,1,1.6,1.4
		c0,0,2.5-0.2,3-1.7C87.7,29.9,87.6,29.6,87.3,29.4z"/>
	<path class="st6" d="M83.5,36.8c0,0,4.9,3.6,5.6,5.5c0.8,1.9-0.6-3-2.7-4.7"/>
	<circle class="st6" cx="85.2" cy="30.2" r="1.5"/>
	<path class="st6" d="M82.4,42.7l2.3-0.1c0,0-0.2,2.4,2.2,4.4c0,0,2.5,1.1,3.2,0.7l0.1,1.9c0,0-2.7,0.2-3.7,0.1
		c-0.1,0-0.2,0-0.3-0.1c-0.4-0.3-1.4,0.1-2.6-1.5C83.7,48,82.8,45.8,82.4,42.7z"/>
	<path class="st1" d="M88.9,23.2C88.9,23.2,88.9,23.2,88.9,23.2C88.9,23.2,88.9,23.2,88.9,23.2z"/>
	<path class="st1" d="M89.8,22.6"/>
	<path class="st9" d="M84.1,19.6C84.1,19.6,84.1,19.6,84.1,19.6C84.1,19.7,84.1,19.8,84.1,19.6z"/>
	<path class="st1" d="M87.5,20C87.5,20,87.5,20,87.5,20C87.5,19.9,87.4,19.9,87.5,20z"/>
	<path class="st1" d="M83.9,20.2c-0.2,0.1-0.3,0.1-0.3,0.1C83.7,20.3,83.8,20.3,83.9,20.2z"/>
	<path class="st1" d="M84,19.6C84,19.6,84,19.6,84,19.6C84,19.6,84.1,19.6,84,19.6C84.1,19.6,84,19.6,84,19.6z"/>
</g>
</svg>
