<?xml version="1.0" encoding="utf-8"?>
<!-- Generator: Adobe Illustrator 26.4.1, SVG Export Plug-In . SVG Version: 6.00 Build 0)  -->
<svg version="1.1" id="Layer_1" xmlns="http://www.w3.org/2000/svg" xmlns:xlink="http://www.w3.org/1999/xlink" x="0px" y="0px"
	 viewBox="0 0 259 110" style="enable-background:new 0 0 259 110;" xml:space="preserve">
<style type="text/css">
	.st0{fill:#FEBF10;}
	.st1{fill:#FFD447;}
	.st2{fill:#755919;}
</style>
<g>
	<path class="st0" d="M128,79.5c-6.1,0-12-0.3-17.4-0.7c5.5,4.7,16.9,7.9,30.2,7.9c18.6,0,33.7-6.3,33.7-14.2c0-0.6-0.1-1.1-0.2-1.7
		C171.9,75.7,152.1,79.5,128,79.5z"/>
	<path class="st1" d="M174.3,70.8c0.2-0.3,0.2-0.7,0.2-1c0-1.4-1.3-2.7-3.8-3.8C172.6,67.4,173.8,69.1,174.3,70.8z"/>
	<path class="st1" d="M170.7,66c-2.4-1.9-5.7-3.6-9.8-4.8c0.3,0.6,0.5,1.3,0.7,2c0.9,2.6,1.3,5.7,0.9,9.1c0,0-4.2-6-8.9-10.5
		c-1.1-1.1-2.3-2-3.4-2.8c-2.3-0.3-4.8-0.5-7.3-0.5c0.4,0.7,0.9,1.5,1.2,2.4c1.2,3.1,1.7,7-0.2,11.5c0,0-3.8-7.7-8.3-11.9
		c-0.7-0.6-1.4-1.2-2-1.6c-1.4,0.1-2.9,0.3-4.2,0.5c0.2,0.3,0.4,0.6,0.5,1c1.3,2.7,1.9,6.1,0.9,10.1c0,0-4.1-5.8-8.7-9.5
		c-9.1,2.5-15.1,6.9-15.1,11.8c0,2.3,1.3,4.4,3.5,6.3c5.4,0.5,11.2,0.7,17.4,0.7c24,0,43.8-3.8,46.2-8.7
		C173.8,69.1,172.6,67.4,170.7,66z"/>
</g>
<path class="st2" d="M146.7,34.4c-0.4-6.8-2.9-11.5-2.9-11.5c1.9,5.6,0.5,11.3,0.1,12.8c-0.1,0.2-0.1,0.4-0.1,0.4s-0.2,0.5-0.5,1.3
	c-0.6,1.8-1.8,5.4-2.7,9.1c-0.2,0.6-0.3,1.2-0.4,1.8c-0.2,1.1-0.5,2.2-0.6,3.2c-0.2,1-0.2,2-0.1,3c0.1,1.1,0.2,2.1,0.4,3.1
	c1,4.2,3.1,7.3,3.1,7.3c-0.5-3.2-0.6-6-0.5-8.4c0-0.9,0.1-1.6,0.1-2.4c0.3-3.7,1-5.9,1-5.9c0.2-0.4,0.3-0.8,0.5-1.2
	c0.2-0.5,0.4-0.9,0.5-1.3c1-2.7,1.7-4.8,2-6.4c0.3-1.5,0.4-2.6,0.4-3.4C146.9,34.8,146.7,34.4,146.7,34.4z"/>
<path class="st1" d="M142.4,29.8c0,0-2-2.9-1.5-5.9c0.5-3,1.9-6.8,1.9-6.8s1-2.9,0-5.8c0,0,1.1,2.1,1.3,5c0,0,0.7,1.3-1.4,6.1
	C142.6,22.5,141.7,25.4,142.4,29.8z"/>
<g>
	<g>
		<path class="st0" d="M2.5,76.9c0.8-1.1,1.6-2.2,2.5-3.2c0.9-1.1,1.8-2.2,2.7-3.2c0.9-1.1,1.9-2.1,2.9-3.1c1-1,2-1.9,3-2.8
			c1.4-1.2,2.9-2.4,4.3-3.3c1.5-1,2.9-1.8,4.4-2.4c1.5-0.6,2.9-1,4.3-1.2c1.4-0.2,2.8-0.1,4.1,0.2c1.3,0.3,2.5,1,3.7,1.9
			c1.2,0.9,2.2,2.1,3.2,3.7c0.9,1.4,1.6,2.8,2.1,4.4c0.5,1.5,0.8,3,0.9,4.5c0.1,1.5,0,3-0.2,4.5c-0.2,1.5-0.7,3-1.3,4.4
			c-0.6,1.4-1.4,2.8-2.4,4.2c-1,1.3-2.2,2.6-3.6,3.8c-0.7,0.6-1.5,1.2-2.3,1.8c-0.8,0.6-1.7,1.1-2.6,1.7c-0.8,0.9-1.2,1.4-2,2.4
			c-0.1,0.1-0.1,0.1-0.2,0.2c-0.3-0.5-0.8-1.1-1.3-1.8c-0.6-0.7-1.2-1.6-2-2.6c-0.8-1-1.6-2-2.6-3.2c-1-1.2-2-2.4-3.1-3.8
			c-1.1-1.3-2.3-2.7-3.6-4.2c-1.3-1.5-2.6-3-4-4.5c-0.3-0.3-0.5-0.6-0.8-0.8C8.2,74.1,7.9,74,7.6,74c-0.3,0-0.6,0.1-1,0.3
			c-0.4,0.2-0.8,0.5-1.3,1c-0.6,0.6-1.2,1.4-2,2.4C3,77.3,2.8,77.2,2.5,76.9z M10.6,69.5c0.3,0.3,0.7,0.9,1.2,1.5
			c0.6,0.7,1.2,1.5,1.9,2.4c0.7,0.9,1.5,1.9,2.4,3c0.9,1.1,1.7,2.2,2.6,3.3c0.9,1.1,1.8,2.3,2.7,3.4c0.9,1.1,1.7,2.2,2.5,3.2
			c0.8,1,1.5,1.9,2.1,2.7c0.6,0.8,1.1,1.5,1.5,2c0.9-0.5,1.7-1,2.4-1.6c0.7-0.5,1.3-1.1,2-1.6c1.3-1.1,2.3-2.3,3.2-3.4
			c0.8-1.2,1.4-2.3,1.8-3.5c0.4-1.2,0.6-2.4,0.7-3.6c0.1-1.2,0-2.4-0.3-3.6c-0.2-1.2-0.6-2.4-1.1-3.5c-0.5-1.2-1.1-2.3-1.9-3.4
			c-1.1-1.6-2.3-2.9-3.7-4c-1.4-1-2.9-1.6-4.6-1.8c-1.7-0.2-3.5,0.1-5.6,0.9c-2,0.8-4.2,2.2-6.5,4.2c-0.6,0.5-1.1,1-1.7,1.6
			S11.2,68.9,10.6,69.5z"/>
		<path class="st2" d="M53.7,57.3c-0.3-0.6-0.7-1.1-1.2-1.4c-0.5-0.3-1-0.5-1.5-0.6c-0.5-0.1-1.1,0-1.7,0.1
			c-0.6,0.1-1.1,0.4-1.6,0.7c-0.7,0.4-1.2,0.8-1.6,1.2c-0.4,0.4-0.7,0.8-0.8,1.2c-0.2,0.4-0.2,0.7-0.2,1.1c0,0.4,0.1,0.7,0.3,1
			c0.2,0.4,0.5,0.7,0.9,1c0.4,0.3,0.8,0.5,1.3,0.7c0,0.1,0,0.1,0,0.2c-0.4,0.5-0.8,1-1.4,1.3c-0.3,0.2-0.6,0.3-0.9,0.4
			C45,64,44.7,64.1,44.4,64c-0.3,0-0.5-0.1-0.8-0.3c-0.2-0.1-0.4-0.4-0.6-0.6c-0.3-0.4-0.4-1-0.4-1.5c0-0.6,0.2-1.2,0.4-1.8
			c0.2-0.6,0.6-1.2,1-1.8c0.4-0.6,0.9-1.2,1.4-1.8s1.1-1.1,1.6-1.5c0.6-0.5,1.1-0.9,1.7-1.2c1-0.6,1.9-0.9,2.7-1.1
			c0.8-0.2,1.6-0.2,2.2,0c0.7,0.2,1.2,0.5,1.7,1c0.5,0.5,0.9,1.1,1.3,1.9c0.3,0.5,0.5,1.1,0.8,1.8c0.3,0.7,0.5,1.4,0.8,2.1
			c0.3,0.7,0.6,1.5,0.9,2.2c0.3,0.8,0.6,1.5,1,2.2c0.6,1.2,1.2,1.9,2,2.2c0.7,0.3,1.5,0.3,2.3-0.1c0.7-0.3,1.3-0.9,1.9-1.8
			c0.2,0.1,0.4,0.2,0.6,0.3c-0.3,0.8-0.8,1.6-1.4,2.2c-0.6,0.6-1.2,1.1-2,1.5c-0.6,0.3-1.1,0.5-1.7,0.5c-0.6,0.1-1.1,0-1.6-0.1
			c-0.5-0.2-1-0.5-1.5-0.9c-0.5-0.4-0.9-1-1.2-1.7c-0.1-0.2-0.2-0.4-0.3-0.6c-0.1-0.2-0.2-0.4-0.2-0.7c0,0,0,0-0.1,0
			c0,0.9-0.1,1.8-0.3,2.7c-0.1,0.9-0.4,1.8-0.7,2.7c-0.3,0.8-0.7,1.6-1.2,2.3c-0.5,0.7-1,1.3-1.7,1.7c-0.6,0.4-1.1,0.6-1.7,0.7
			c-0.6,0.1-1.1,0.1-1.7,0c-0.5-0.1-1-0.3-1.5-0.6c-0.5-0.3-0.8-0.7-1.2-1.2c-0.4-0.7-0.6-1.4-0.7-2.1c-0.1-0.7,0-1.5,0.3-2.2
			c0.2-0.8,0.6-1.5,1.1-2.3c0.5-0.8,1.1-1.5,1.9-2.2c0.7-0.7,1.5-1.4,2.4-2.1c0.9-0.7,1.8-1.3,2.8-1.8c-0.2-0.5-0.4-1.1-0.6-1.5
			C54.2,58.4,54,57.8,53.7,57.3z M49.9,70.2c0.2,0.3,0.4,0.6,0.6,0.8c0.2,0.2,0.5,0.4,0.8,0.5c0.3,0.1,0.6,0.2,0.9,0.1
			c0.3,0,0.6-0.1,1-0.4c0.4-0.2,0.7-0.6,1.1-1c0.3-0.4,0.6-0.9,0.8-1.4c0.2-0.5,0.4-1.1,0.6-1.7c0.2-0.6,0.3-1.3,0.3-1.9
			c0-0.7,0-1.3,0-1.9c-0.1-0.6-0.2-1.3-0.4-1.9c-0.7,0.4-1.3,0.8-1.9,1.2c-0.6,0.4-1.2,0.9-1.7,1.4c-0.5,0.5-1,1-1.3,1.5
			c-0.4,0.5-0.7,1-0.8,1.5c-0.2,0.5-0.3,1-0.2,1.6C49.4,69.1,49.5,69.7,49.9,70.2z"/>
		<path class="st2" d="M59.1,49.9c0.6-0.5,1.2-1,1.7-1.5c0.6-0.5,1.1-0.9,1.6-1.3c0.5-0.4,0.9-0.7,1.3-0.9c0.4-0.3,0.7-0.4,0.9-0.5
			c0.6-0.3,1.1-0.3,1.5-0.2c0.4,0.1,0.8,0.6,1.1,1.3c0.1,0.2,0.2,0.5,0.4,1.1c0.2,0.6,0.4,1.3,0.6,2.1c0.3,0.9,0.5,1.8,0.8,2.9
			c0.3,1.1,0.6,2.3,1,3.5c0,0,0.1,0,0.1,0c-0.2-2.4-0.2-4.5,0-6.2c0.2-1.8,0.6-3.2,1-4.5c0.5-1.2,1.1-2.2,1.8-2.9
			c0.7-0.7,1.4-1.2,2.2-1.5c0.7-0.3,1.3-0.3,1.9-0.2s1.1,0.4,1.5,0.7c0.4,0.4,0.8,0.8,1.2,1.4s0.6,1.1,0.8,1.7
			c0.2,0.5,0.3,1.1,0.5,1.7c0.1,0.6,0.3,1.2,0.4,1.8c0.1,0.6,0.2,1.2,0.3,1.7c0.1,0.5,0.2,1,0.3,1.4c0,0,0.1,0,0.1,0
			c0-2.4,0.1-4.5,0.5-6.3c0.3-1.8,0.8-3.2,1.4-4.4c0.6-1.2,1.2-2.1,2-2.7c0.7-0.6,1.5-1.1,2.3-1.3c0.5-0.1,1-0.2,1.6-0.1
			c0.5,0.1,1,0.2,1.5,0.6s0.9,0.8,1.3,1.3c0.4,0.6,0.7,1.3,0.9,2.2c0.1,0.3,0.1,0.6,0.2,1.1c0.1,0.5,0.1,1,0.2,1.5
			c0.1,0.6,0.1,1.1,0.2,1.8c0.1,0.6,0.2,1.2,0.2,1.8c0.1,0.6,0.2,1.2,0.3,1.7c0.1,0.5,0.2,1,0.3,1.4c0.2,0.7,0.3,1.2,0.5,1.6
			c0.2,0.4,0.3,0.7,0.5,0.9c0.2,0.2,0.4,0.3,0.7,0.4c0.3,0,0.5,0,0.9-0.1c0.5-0.1,1-0.3,1.5-0.5c0.5-0.2,1-0.5,1.5-0.9
			c0.2,0.3,0.2,0.4,0.4,0.6c-0.3,0.3-0.7,0.7-1.1,1.1c-0.5,0.4-0.9,0.7-1.5,1.1c-0.5,0.3-1,0.7-1.6,0.9c-0.5,0.3-1,0.5-1.4,0.6
			c-0.5,0.1-0.9,0.1-1.3-0.1c-0.3-0.2-0.6-0.5-0.9-0.9c-0.3-0.4-0.5-0.9-0.7-1.5c-0.2-0.6-0.4-1.2-0.5-1.9c-0.2-0.8-0.4-1.7-0.5-2.6
			c-0.2-0.9-0.3-1.8-0.4-2.6s-0.2-1.6-0.3-2.2c-0.1-0.7-0.2-1.2-0.3-1.5c-0.2-0.9-0.6-1.6-1.1-2c-0.5-0.4-1.1-0.5-1.8-0.3
			c-0.5,0.1-1,0.5-1.5,1.1c-0.5,0.6-0.9,1.3-1.2,2.2c-0.4,0.9-0.7,1.9-0.9,3.1c-0.2,1.2-0.4,2.4-0.4,3.7c-0.1,1.3,0,2.6,0.1,4
			c0.1,1.4,0.3,2.7,0.6,4c-1.1,0.5-1.6,0.8-2.7,1.3c-0.1,0-0.1,0-0.2,0.1c-0.5-1.8-0.9-3.4-1.3-4.8c-0.4-1.4-0.7-2.6-1-3.7
			c-0.3-1.1-0.5-1.9-0.7-2.7c-0.2-0.7-0.4-1.3-0.5-1.8c-0.3-1-0.7-1.6-1.3-2c-0.5-0.3-1.1-0.4-1.7-0.2c-0.5,0.2-1,0.6-1.4,1.2
			c-0.4,0.6-0.8,1.4-1.1,2.3c-0.3,0.9-0.5,2-0.7,3.1c-0.1,1.2-0.2,2.4-0.2,3.7c0,1.3,0.2,2.6,0.4,3.9c0.2,1.3,0.5,2.6,1,3.9
			c-1.1,0.6-1.6,0.9-2.6,1.5c-0.1,0-0.1,0.1-0.2,0.1c-0.3-0.8-0.6-1.7-0.9-2.7c-0.3-1-0.7-1.9-1-2.9c-0.3-1-0.7-1.9-1-2.9
			c-0.3-1-0.7-1.8-1-2.7c-0.3-0.8-0.6-1.6-0.8-2.2c-0.3-0.7-0.5-1.2-0.6-1.5c-0.1-0.3-0.3-0.6-0.4-0.8c-0.2-0.2-0.3-0.3-0.5-0.4
			c-0.2-0.1-0.4-0.1-0.6-0.1c-0.2,0-0.4,0.1-0.7,0.2c-0.4,0.2-0.8,0.4-1.2,0.7c-0.4,0.3-1,0.7-1.5,1.1
			C59.5,50.4,59.3,50.2,59.1,49.9z"/>
		<path class="st2" d="M112.7,38.3c-0.1-0.7-0.3-1.3-0.6-1.8c-0.3-0.5-0.7-0.9-1.2-1.1c-0.5-0.3-1-0.5-1.6-0.5
			c-0.6-0.1-1.1-0.1-1.7,0c-0.7,0.1-1.4,0.3-1.8,0.5c-0.5,0.2-0.9,0.5-1.2,0.7c-0.3,0.3-0.5,0.6-0.6,0.9c-0.1,0.3-0.1,0.7,0,1.1
			c0.1,0.4,0.2,0.8,0.5,1.2c0.2,0.4,0.6,0.8,1,1.1c0,0.1,0,0.1,0,0.2c-0.5,0.3-1.1,0.6-1.7,0.7c-0.3,0.1-0.7,0.1-1,0
			c-0.3,0-0.6-0.1-0.8-0.3c-0.2-0.1-0.5-0.3-0.6-0.6S101,40,101,39.7c-0.1-0.5,0-1,0.2-1.6c0.2-0.5,0.5-1,0.9-1.5
			c0.4-0.5,0.9-0.9,1.5-1.3c0.6-0.4,1.2-0.8,1.9-1.1s1.3-0.6,2-0.8c0.7-0.2,1.3-0.4,1.9-0.4c1.1-0.1,2.1-0.1,2.9,0
			c0.8,0.2,1.5,0.5,2,0.9c0.5,0.4,0.9,1,1.2,1.6c0.3,0.7,0.5,1.4,0.5,2.3c0.1,0.6,0.1,1.2,0.1,2c0,0.7,0,1.5,0,2.2
			c0,0.8,0,1.6,0,2.4c0,0.8,0.1,1.7,0.1,2.5c0.1,1.3,0.5,2.2,1,2.8c0.6,0.6,1.3,0.9,2.1,0.8c0.7-0.1,1.5-0.4,2.4-0.9
			c0.2,0.2,0.3,0.3,0.4,0.6c-0.6,0.6-1.3,1.1-2,1.5s-1.5,0.6-2.3,0.7c-0.6,0.1-1.2,0-1.7-0.1c-0.5-0.1-1-0.4-1.4-0.7
			c-0.4-0.3-0.8-0.8-1-1.4c-0.3-0.6-0.5-1.2-0.5-2c0-0.2,0-0.5-0.1-0.7c0-0.2,0-0.5,0-0.7c0,0-0.1,0-0.1,0c-0.3,0.8-0.7,1.6-1.2,2.5
			c-0.4,0.8-1,1.6-1.5,2.2c-0.6,0.7-1.2,1.2-1.8,1.7c-0.7,0.5-1.4,0.8-2.2,0.9c-0.6,0.1-1.2,0.1-1.8,0s-1.1-0.3-1.5-0.6
			c-0.4-0.3-0.8-0.7-1.1-1.1c-0.3-0.5-0.5-1-0.6-1.6c-0.1-0.8-0.1-1.5,0.1-2.2c0.2-0.7,0.5-1.4,1-2c0.5-0.6,1.1-1.2,1.8-1.7
			c0.7-0.5,1.5-1,2.4-1.4c0.9-0.4,1.9-0.7,2.9-1c1-0.3,2.1-0.5,3.2-0.6c0-0.6,0-1.1,0-1.7C112.8,39.5,112.8,39,112.7,38.3z
			 M104.8,48.9c0.1,0.3,0.2,0.7,0.3,1c0.1,0.3,0.3,0.6,0.5,0.8c0.2,0.2,0.5,0.4,0.8,0.5c0.3,0.1,0.6,0.1,1,0
			c0.4-0.1,0.9-0.2,1.3-0.5c0.4-0.3,0.8-0.6,1.2-1c0.4-0.4,0.8-0.8,1.1-1.4c0.3-0.5,0.7-1.1,0.9-1.7c0.3-0.6,0.5-1.2,0.6-1.8
			c0.2-0.6,0.2-1.3,0.2-1.9c-0.7,0.1-1.5,0.2-2.2,0.4c-0.7,0.2-1.4,0.4-2,0.6c-0.6,0.2-1.2,0.5-1.7,0.8c-0.5,0.3-0.9,0.7-1.3,1.1
			c-0.3,0.4-0.6,0.9-0.7,1.4C104.8,47.7,104.7,48.2,104.8,48.9z"/>
		<path class="st2" d="M125,46.3c0.1,0.7,0.3,1.3,0.7,1.7c0.3,0.5,0.8,0.9,1.2,1.2c0.5,0.3,1,0.5,1.6,0.7c0.6,0.1,1.1,0.2,1.7,0.2
			c0.5,0,1-0.1,1.5-0.2c0.5-0.1,0.9-0.3,1.3-0.6c0.4-0.2,0.7-0.6,0.9-0.9c0.2-0.4,0.3-0.8,0.4-1.2c0-0.5-0.1-0.9-0.3-1.3
			c-0.2-0.4-0.6-0.7-1-1c-0.4-0.3-0.9-0.6-1.4-0.8c-0.5-0.2-1.1-0.5-1.7-0.8c-0.5-0.2-1.1-0.4-1.6-0.7c-0.5-0.2-1.1-0.5-1.6-0.7
			c-0.5-0.3-1-0.5-1.4-0.8c-0.4-0.3-0.8-0.6-1.2-1s-0.6-0.8-0.8-1.2c-0.2-0.5-0.3-1-0.4-1.6c0-0.6,0.1-1.2,0.3-1.7
			c0.2-0.5,0.5-1,1-1.5c0.4-0.4,0.9-0.8,1.5-1.2c0.6-0.3,1.2-0.6,1.8-0.9s1.3-0.4,2-0.5s1.4-0.2,2-0.2c0.8,0,1.6,0.1,2.4,0.2
			c0.8,0.2,1.4,0.4,2,0.7c0.6,0.3,1,0.7,1.3,1.1c0.3,0.4,0.5,0.9,0.4,1.5c0,0.2-0.1,0.4-0.1,0.7c-0.1,0.2-0.2,0.5-0.4,0.7
			s-0.5,0.4-0.8,0.5c-0.3,0.1-0.7,0.2-1.2,0.2c-0.4,0-0.9-0.1-1.4-0.2c0-0.1,0-0.1,0-0.1c0.1-0.3,0.3-0.6,0.3-0.8
			c0.1-0.2,0.1-0.5,0.1-0.7c0-0.4-0.1-0.8-0.4-1.1c-0.2-0.3-0.5-0.5-0.9-0.7c-0.4-0.2-0.8-0.3-1.2-0.4c-0.4-0.1-0.9-0.1-1.3-0.1
			c-0.7,0-1.4,0.1-2,0.3c-0.6,0.2-1.1,0.4-1.5,0.7c-0.4,0.3-0.7,0.6-0.9,1c-0.2,0.4-0.3,0.7-0.3,1.1c0,0.5,0.2,0.9,0.5,1.3
			c0.3,0.4,0.7,0.7,1.2,1c0.5,0.3,1.1,0.6,1.7,0.9c0.6,0.3,1.3,0.6,2,0.8c0.8,0.3,1.5,0.7,2.3,1c0.7,0.4,1.4,0.8,2,1.2
			c0.6,0.5,1,1,1.4,1.6c0.3,0.6,0.5,1.3,0.5,2c0,0.9-0.3,1.7-0.7,2.4c-0.5,0.7-1,1.3-1.8,1.8c-0.7,0.5-1.6,0.8-2.5,1.1
			c-0.9,0.3-1.9,0.4-2.9,0.4c-0.5,0-1,0-1.5-0.1c-0.5-0.1-1.1-0.1-1.6-0.3c-0.5-0.1-1-0.3-1.4-0.5c-0.5-0.2-0.9-0.4-1.2-0.7
			c-0.4-0.3-0.6-0.5-0.8-0.9c-0.2-0.3-0.3-0.7-0.4-1.1c0-0.4,0-0.7,0.2-0.9c0.1-0.3,0.3-0.5,0.6-0.6c0.3-0.2,0.5-0.3,0.9-0.4
			c0.3-0.1,0.7-0.2,1-0.2C124.9,46.3,124.9,46.3,125,46.3z"/>
		<path class="st0" d="M152.8,44.5c-0.1,0.2-0.1,0.4-0.1,0.6c0,0.2-0.1,0.4-0.1,0.6c-0.1,1-0.1,1.9,0.1,2.6c0.2,0.7,0.5,1.4,1,1.9
			c0.5,0.5,1.1,0.9,1.8,1.3c0.7,0.3,1.5,0.6,2.5,0.7c0.9,0.2,1.8,0.2,2.7,0.1c0.9-0.1,1.7-0.3,2.4-0.6c0.7-0.4,1.4-0.8,1.9-1.5
			c0.5-0.6,0.9-1.4,1.1-2.4c0.1-0.6,0.2-1.2,0.1-1.7c-0.1-0.5-0.2-1.1-0.5-1.5c-0.2-0.5-0.5-1-0.9-1.4c-0.4-0.4-0.8-0.9-1.3-1.3
			c-0.5-0.4-1-0.8-1.5-1.2c-0.5-0.4-1.1-0.8-1.6-1.2c-0.6-0.4-1.2-0.8-1.8-1.3c-0.6-0.4-1.1-0.9-1.7-1.3c-0.5-0.5-1-0.9-1.5-1.4
			c-0.5-0.5-0.8-1-1.1-1.6c-0.3-0.6-0.5-1.2-0.7-1.8c-0.1-0.7-0.2-1.4-0.1-2.1c0.1-0.9,0.4-1.8,0.8-2.6c0.4-0.8,0.9-1.5,1.5-2.1
			c0.6-0.6,1.3-1.1,2.2-1.5c0.8-0.4,1.7-0.7,2.7-1c1-0.2,2-0.3,3-0.3c1.1,0,2.1,0.1,3.2,0.3c0.5,0.1,1,0.2,1.6,0.4
			c0.5,0.2,1.1,0.4,1.6,0.6c0.5,0.2,1,0.5,1.5,0.7c0.5,0.3,0.9,0.5,1.2,0.8c0.3,0.3,0.6,0.5,0.8,0.8c0.2,0.3,0.2,0.5,0.2,0.8
			c-0.1,0.3-0.1,0.6-0.2,0.9c-0.1,0.4-0.2,0.8-0.3,1.3c-0.1,0.5-0.3,1-0.4,1.6c-0.2,0.6-0.3,1.2-0.5,1.8c-0.6-0.2-1-0.3-1.6-0.4
			c0.1-0.3,0.2-0.6,0.2-0.9c0.2-0.9,0.2-1.7,0-2.4c-0.2-0.7-0.5-1.4-1-2c-0.5-0.6-1.1-1.1-1.9-1.5c-0.8-0.4-1.7-0.7-2.7-0.9
			c-1-0.2-2-0.2-2.9-0.1c-0.9,0.1-1.7,0.4-2.4,0.7c-0.7,0.4-1.3,0.9-1.7,1.5c-0.5,0.6-0.7,1.3-0.8,2.1c-0.1,0.6-0.1,1.3,0.1,1.8
			c0.1,0.6,0.3,1.1,0.6,1.6c0.3,0.5,0.6,1,1.1,1.4c0.4,0.4,0.9,0.9,1.4,1.3c0.5,0.4,1.1,0.8,1.6,1.2c0.6,0.4,1.1,0.8,1.7,1.2
			c0.6,0.4,1.2,0.9,1.8,1.3c0.6,0.4,1.1,0.9,1.6,1.4c0.5,0.5,1,1,1.4,1.5c0.4,0.5,0.7,1.1,1,1.7c0.2,0.6,0.4,1.2,0.5,1.8
			c0.1,0.6,0,1.3-0.2,2.1c-0.3,1.2-0.7,2.2-1.3,3.1c-0.6,0.8-1.2,1.5-2,2.1c-0.7,0.5-1.5,1-2.4,1.3c-0.9,0.3-1.7,0.5-2.6,0.6
			c-0.9,0.1-1.7,0.2-2.6,0.2c-0.8,0-1.6-0.1-2.3-0.2c-0.9-0.2-1.8-0.4-2.6-0.6c-0.8-0.2-1.5-0.5-2.1-0.8c-0.6-0.3-1-0.6-1.4-0.9
			c-0.3-0.3-0.5-0.6-0.4-0.9c0.1-0.6,0.2-1.5,0.4-2.6s0.4-2.4,0.7-4C151.9,44.4,152.2,44.4,152.8,44.5z"/>
		<path class="st2" d="M176.8,50.5c1.3-2,2.7-3.6,4-4.8c1.3-1.2,2.5-2.2,3.7-2.8c1.2-0.6,2.3-1,3.3-1.1c1-0.1,2,0,2.8,0.3
			c0.6,0.2,1.1,0.5,1.5,0.9c0.5,0.4,0.8,0.8,1.1,1.4c0.3,0.5,0.4,1.2,0.4,1.8c0,0.7-0.1,1.5-0.4,2.3c-0.1,0.3-0.2,0.6-0.4,1
			c-0.2,0.4-0.4,0.9-0.7,1.4c-0.2,0.5-0.5,1.1-0.8,1.6c-0.3,0.6-0.6,1.1-0.8,1.7c-0.3,0.6-0.5,1.1-0.7,1.6c-0.2,0.5-0.4,0.9-0.5,1.3
			c-0.2,0.7-0.4,1.2-0.5,1.6c-0.1,0.4-0.1,0.8-0.1,1.1c0,0.3,0.2,0.5,0.4,0.7c0.2,0.2,0.4,0.3,0.8,0.5c0.5,0.2,1,0.3,1.5,0.4
			c0.5,0.1,1.1,0.1,1.7,0.2c0,0.3,0,0.5,0,0.8c-0.4,0.1-0.9,0.2-1.5,0.2c-0.6,0-1.2,0-1.8,0c-0.6,0-1.2-0.1-1.8-0.2
			s-1.1-0.2-1.5-0.4c-0.5-0.2-0.8-0.5-1-0.8s-0.3-0.8-0.3-1.2c0-0.5,0.1-1,0.2-1.6c0.2-0.6,0.3-1.2,0.6-1.9c0.3-0.8,0.6-1.6,0.9-2.4
			c0.4-0.8,0.7-1.6,1-2.3c0.3-0.7,0.7-1.4,0.9-2c0.3-0.6,0.5-1.1,0.6-1.5c0.3-0.9,0.4-1.7,0.1-2.4c-0.3-0.6-0.8-1.1-1.5-1.3
			c-0.6-0.2-1.2-0.2-2,0c-0.8,0.2-1.6,0.5-2.4,1.1c-0.9,0.5-1.7,1.2-2.6,2c-0.9,0.8-1.7,1.7-2.5,2.8c-0.8,1-1.5,2.1-2.2,3.3
			c-0.7,1.2-1.2,2.4-1.6,3.7c-1.2-0.2-1.8-0.3-3-0.5c-0.1,0-0.1,0-0.2-0.1c0.3-1,0.7-2.1,1.1-3.3c0.4-1.2,0.8-2.5,1.2-3.9
			c0.4-1.4,0.9-2.8,1.4-4.3c0.5-1.5,1-3,1.5-4.5c0.5-1.5,1-3.1,1.5-4.6c0.5-1.6,1-3.1,1.6-4.6c0.5-1.5,1-3,1.5-4.5
			c0.5-1.5,1-2.8,1.4-4.2c0.1-0.2,0.2-0.4,0.4-0.5c0.2-0.1,0.4-0.2,0.7-0.2c0.3,0,0.5,0,0.8,0c0.3,0,0.6,0.1,0.9,0.2
			c0.7,0.2,1.3,0.6,2,1.1c-0.8,1.7-1.5,3.2-2.1,4.6c-0.6,1.4-1.2,2.7-1.7,3.9s-1,2.3-1.4,3.4c-0.4,1-0.8,2.1-1.2,3
			c-0.4,1-0.7,1.9-1.1,2.8s-0.7,1.9-1.1,2.8c-0.4,1-0.7,2-1.1,3C177.6,48.2,177.1,49.3,176.8,50.5C176.7,50.5,176.8,50.5,176.8,50.5
			z"/>
		<path class="st2" d="M210.8,57.7c0.3-0.6,0.5-1.2,0.5-1.8c0-0.6-0.1-1.2-0.4-1.7s-0.6-1-1-1.4c-0.4-0.4-0.9-0.8-1.4-1
			c-0.7-0.4-1.3-0.6-1.8-0.7c-0.5-0.1-1-0.1-1.4-0.1c-0.4,0.1-0.7,0.2-1,0.4c-0.3,0.2-0.5,0.5-0.6,0.8c-0.2,0.4-0.3,0.8-0.3,1.3
			c0,0.5,0.1,1,0.2,1.5c0,0-0.1,0.1-0.1,0.1c-0.6,0-1.2-0.2-1.8-0.4c-0.3-0.2-0.6-0.3-0.8-0.6c-0.2-0.2-0.4-0.5-0.6-0.7
			c-0.1-0.3-0.2-0.5-0.2-0.8c0-0.3,0-0.6,0.2-0.9c0.2-0.5,0.5-0.9,1-1.2c0.5-0.3,1-0.5,1.6-0.7c0.6-0.1,1.3-0.2,2-0.2
			c0.7,0,1.5,0.1,2.2,0.2c0.7,0.1,1.4,0.3,2.1,0.5c0.7,0.2,1.3,0.5,1.9,0.8c1,0.5,1.8,1.1,2.4,1.7c0.6,0.6,1,1.3,1.2,1.9
			c0.2,0.7,0.3,1.4,0.1,2.1c-0.1,0.7-0.4,1.4-0.8,2.2c-0.3,0.5-0.6,1.1-1,1.7c-0.4,0.6-0.8,1.2-1.2,1.9c-0.4,0.6-0.9,1.3-1.3,2
			c-0.4,0.7-0.8,1.4-1.2,2.1c-0.6,1.1-0.8,2.1-0.7,3c0.2,0.8,0.6,1.5,1.3,1.9c0.7,0.4,1.5,0.6,2.6,0.7c0,0.3,0,0.4,0.1,0.7
			c-0.9,0.2-1.7,0.2-2.5,0s-1.6-0.4-2.3-0.8c-0.5-0.3-1-0.7-1.4-1.1c-0.4-0.4-0.6-0.9-0.8-1.5c-0.2-0.5-0.2-1.1-0.1-1.8
			c0.1-0.6,0.3-1.3,0.6-2c0.1-0.2,0.2-0.4,0.3-0.6c0.1-0.2,0.3-0.4,0.4-0.6c0,0,0,0-0.1,0c-0.7,0.5-1.5,0.9-2.3,1.3
			c-0.8,0.4-1.7,0.7-2.5,0.9c-0.8,0.2-1.7,0.3-2.5,0.3c-0.8,0-1.6-0.2-2.3-0.5c-0.6-0.3-1.1-0.7-1.5-1.1c-0.4-0.4-0.7-0.9-0.9-1.4
			c-0.2-0.5-0.3-1-0.3-1.6c0-0.6,0.1-1.1,0.3-1.7c0.3-0.7,0.7-1.3,1.3-1.8c0.5-0.5,1.2-0.8,1.9-1s1.5-0.3,2.4-0.3
			c0.9,0,1.8,0.1,2.8,0.3c1,0.2,2,0.5,3,0.9c1,0.4,2,0.9,3,1.4c0.3-0.5,0.6-0.9,0.9-1.4C210.2,58.8,210.5,58.2,210.8,57.7z
			 M198.4,61.6c-0.1,0.3-0.2,0.6-0.3,1c-0.1,0.3,0,0.6,0,0.9c0.1,0.3,0.2,0.6,0.4,0.8c0.2,0.2,0.5,0.5,0.8,0.6
			c0.4,0.2,0.8,0.3,1.3,0.4c0.5,0,1,0,1.6-0.1c0.6-0.1,1.1-0.2,1.7-0.4c0.6-0.2,1.1-0.5,1.7-0.8c0.5-0.3,1.1-0.7,1.5-1.1
			c0.5-0.4,0.9-0.9,1.2-1.4c-0.7-0.4-1.4-0.7-2.1-1c-0.7-0.3-1.4-0.5-2-0.7c-0.7-0.2-1.3-0.3-1.9-0.3c-0.6,0-1.2,0-1.7,0.1
			c-0.5,0.1-1,0.4-1.4,0.7C199,60.6,198.7,61.1,198.4,61.6z"/>
		<path class="st2" d="M219.7,58.2c0.8,0.2,1.5,0.4,2.2,0.7c0.7,0.2,1.3,0.5,1.9,0.7c0.6,0.2,1.1,0.4,1.5,0.6c0.4,0.2,0.7,0.4,1,0.5
			c0.5,0.4,0.9,0.8,1,1.2c0.1,0.5,0,1-0.4,1.6c-0.1,0.1-0.3,0.5-0.7,0.9c-0.4,0.5-0.8,1-1.3,1.7c-0.5,0.7-1.2,1.5-1.9,2.4
			c-0.7,0.9-1.5,1.8-2.3,2.8c0,0,0,0,0.1,0.1c1.8-1.5,3.5-2.6,5-3.4c1.5-0.8,2.9-1.3,4.2-1.6c1.3-0.2,2.4-0.2,3.3,0
			c1,0.2,1.8,0.6,2.5,1.2c0.6,0.5,1,1,1.3,1.6c0.2,0.6,0.3,1.2,0.3,1.8c0,0.6-0.2,1.2-0.4,1.8c-0.3,0.6-0.6,1.1-1,1.6
			c-0.3,0.4-0.7,0.9-1.1,1.4c-0.4,0.5-0.8,0.9-1.2,1.4c-0.4,0.4-0.8,0.9-1.2,1.3c-0.4,0.4-0.7,0.7-1,1c0,0,0,0,0.1,0.1
			c1.9-1.4,3.7-2.4,5.3-3c1.6-0.7,3.1-1,4.4-1.2c1.3-0.1,2.4,0,3.4,0.3c1,0.3,1.8,0.8,2.4,1.4c0.4,0.4,0.8,0.8,1,1.4
			c0.3,0.5,0.4,1.1,0.4,1.7c0,0.6-0.1,1.2-0.3,1.9c-0.3,0.7-0.7,1.3-1.3,2c-0.2,0.2-0.4,0.4-0.7,0.7c-0.3,0.3-0.7,0.6-1.1,1
			c-0.4,0.4-0.8,0.8-1.3,1.2c-0.5,0.4-0.9,0.8-1.3,1.2s-0.8,0.8-1.2,1.2c-0.4,0.4-0.7,0.7-1,1c-0.5,0.5-0.8,1-1,1.3
			c-0.2,0.4-0.4,0.7-0.4,1c-0.1,0.3,0,0.6,0.1,0.8c0.1,0.3,0.3,0.5,0.6,0.8c0.4,0.4,0.8,0.7,1.3,1.1c0.5,0.3,1,0.6,1.6,0.9
			c-0.1,0.3-0.2,0.4-0.3,0.7c-0.4-0.1-0.9-0.2-1.5-0.5c-0.6-0.2-1.2-0.5-1.8-0.7c-0.6-0.3-1.2-0.6-1.7-0.9c-0.5-0.3-1-0.7-1.3-1
			c-0.4-0.4-0.6-0.8-0.7-1.2s0-0.8,0.2-1.3c0.2-0.4,0.4-0.9,0.8-1.4s0.7-1,1.2-1.5c0.5-0.6,1.1-1.3,1.8-1.9c0.6-0.6,1.3-1.2,1.8-1.8
			c0.6-0.6,1.1-1.1,1.6-1.5c0.5-0.5,0.8-0.8,1.1-1.1c0.6-0.7,0.9-1.4,0.9-2.1c0-0.7-0.3-1.2-0.8-1.7c-0.4-0.4-1-0.6-1.8-0.7
			s-1.6-0.1-2.6,0.1c-0.9,0.2-2,0.5-3,0.9c-1.1,0.4-2.1,1-3.2,1.6c-1.1,0.7-2.1,1.4-3.2,2.3s-2,1.8-2.8,2.8c-1.1-0.7-1.6-1-2.7-1.7
			c-0.1-0.1-0.1-0.1-0.2-0.2c1.2-1.4,2.2-2.7,3.1-3.8c0.9-1.1,1.7-2.1,2.4-2.9c0.7-0.8,1.3-1.5,1.8-2.1c0.5-0.6,0.9-1.1,1.1-1.5
			c0.6-0.8,0.9-1.5,0.8-2.2c0-0.7-0.3-1.2-0.8-1.6c-0.5-0.4-1.1-0.6-1.8-0.6c-0.8,0-1.6,0.1-2.5,0.3c-0.9,0.3-1.9,0.6-2.9,1.2
			s-2,1.2-3,1.9c-1,0.7-2,1.6-2.9,2.5c-0.9,0.9-1.8,1.9-2.6,3c-1.1-0.6-1.6-0.9-2.8-1.4c-0.1-0.1-0.1-0.1-0.2-0.1
			c0.5-0.7,1-1.4,1.6-2.2c0.6-0.8,1.2-1.6,1.7-2.5c0.6-0.8,1.2-1.7,1.7-2.5c0.6-0.8,1.1-1.6,1.6-2.3c0.5-0.7,0.9-1.4,1.3-2
			c0.4-0.6,0.7-1,0.9-1.4c0.2-0.3,0.3-0.6,0.4-0.8c0.1-0.2,0.1-0.5,0.1-0.7s-0.1-0.4-0.3-0.6c-0.1-0.2-0.3-0.3-0.6-0.5
			c-0.3-0.2-0.7-0.4-1.3-0.6c-0.5-0.2-1.1-0.4-1.8-0.7C219.5,58.8,219.6,58.6,219.7,58.2z"/>
	</g>
</g>
</svg>
