<?xml version="1.0" encoding="utf-8"?>
<!-- Generator: Adobe Illustrator 26.4.1, SVG Export Plug-In . SVG Version: 6.00 Build 0)  -->
<svg version="1.1" id="Layer_1" xmlns="http://www.w3.org/2000/svg" xmlns:xlink="http://www.w3.org/1999/xlink" x="0px" y="0px"
	 viewBox="0 0 259 110" style="enable-background:new 0 0 259 110;" xml:space="preserve">
<style type="text/css">
	.st0{fill:none;}
	.st1{fill:#FEBF10;}
	.st2{fill:#FEE778;}
	.st3{fill:#755919;}
</style>
<path class="st0" d="M167.8,74.9c-0.1,1.1-0.2,2.3-0.2,3.6l0.1,0c0.7-2.2,1.4-4.1,2.2-5.7c-0.6-0.2-1.2-0.3-1.8-0.5
	C167.9,73.2,167.8,74,167.8,74.9z"/>
<path class="st0" d="M193.5,76.7c-0.6,0.1-1.1,0.3-1.6,0.6s-0.9,0.5-1.3,0.9c-0.4,0.3-0.6,0.8-0.9,1.2c-0.2,0.5-0.3,1-0.3,1.6
	c0,0.4,0,0.7,0.1,1c0.1,0.3,0.2,0.6,0.4,0.8c0.2,0.2,0.4,0.4,0.6,0.6c0.3,0.1,0.6,0.2,0.9,0.2c0.4,0,0.8-0.1,1.3-0.3
	c0.4-0.2,0.9-0.4,1.3-0.8c0.4-0.3,0.8-0.7,1.2-1.2c0.4-0.5,0.7-1,1-1.5s0.6-1.1,0.8-1.7c0.2-0.6,0.3-1.2,0.4-1.9
	c-0.7,0-1.3,0.1-2,0.1C194.7,76.5,194.1,76.6,193.5,76.7z"/>
<path class="st0" d="M145.7,80.6c0.3,0.9,0.7,1.5,1.3,2.1c0.6,0.5,1.2,0.9,2,1.2c0.8,0.2,1.7,0.4,2.6,0.4s1.9-0.1,2.8-0.4
	c0.7-0.2,1.3-0.6,1.9-1c-4.1-1-7.7-2.2-10.8-3.4C145.5,79.8,145.6,80.2,145.7,80.6z"/>
<path class="st1" d="M247.5,46.5c0,0-13.7-8.5-31-3.5C216.5,43,223.7,51.5,247.5,46.5z"/>
<path class="st1" d="M228,58.8c0,0-12.8-13.2-32.8-10C195.2,48.8,200.9,61,228,58.8z"/>
<path class="st1" d="M174.4,53.1c0,0,5.8,12,33.8,11.4C208.3,64.4,195.2,51,174.4,53.1z"/>
<path class="st1" d="M165.6,64.2c0.1-1,0.1-1.9,0.2-2.9c-4.9-1.9-10.7-3.1-17.4-2.9c0,0,0.7,2.1,3.1,4.8c0.5,0.3,0.9,0.7,1.5,1
	c0.6,0.4,1.2,0.7,1.8,1.1c0.6,0.4,1.2,0.7,1.8,1.1c0.6,0.4,1.2,0.8,1.8,1.2c0.6,0.4,1.1,0.9,1.5,1.4c0.2,0.2,0.4,0.4,0.5,0.6
	c1.4,0.7,3,1.4,4.8,2c0-0.8,0.1-1.6,0.1-2.4C165.5,67.5,165.6,65.9,165.6,64.2z"/>
<path class="st1" d="M168.2,68.7c-0.1,1-0.1,2-0.2,3c0,0.2,0,0.4,0,0.6c0.6,0.2,1.2,0.3,1.8,0.5c0,0,0-0.1,0.1-0.1
	c0.8-1.6,1.6-2.9,2.4-3.8c0.8-1,1.6-1.7,2.4-2.1c0.2-0.1,0.5-0.2,0.7-0.3c-1.9-1.3-4.1-2.6-6.6-3.8c-0.1,1.1-0.2,2.1-0.3,3.1
	C168.4,66.7,168.3,67.7,168.2,68.7z"/>
<path class="st1" d="M177.7,72.2c0-1-0.2-1.7-0.6-2.2c-0.4-0.5-0.9-0.7-1.6-0.7c-0.5,0-1.1,0.2-1.6,0.7c-0.6,0.4-1.2,1-1.7,1.8
	c-0.3,0.4-0.6,0.9-1,1.5c1.9,0.4,4.1,0.8,6.3,1.1c0-0.1,0-0.3,0-0.4C177.7,73.2,177.7,72.6,177.7,72.2z"/>
<path class="st1" d="M180.7,72.2c0,0.5-0.1,1-0.1,1.5c0,0.3,0,0.6-0.1,0.8c1.3,0.1,2.7,0.2,4.1,0.3c0,0-1.3-1.8-3.9-4.2
	c0,0.1,0,0.2,0,0.4C180.8,71.4,180.8,71.7,180.7,72.2z"/>
<path class="st1" d="M158.8,83.4c0.3,0.1,0.6,0.1,0.9,0.2c0,0-0.1-0.2-0.4-0.6C159.1,83.1,159,83.2,158.8,83.4z"/>
<path class="st1" d="M145.4,76.1c0,0.3,0,0.5-0.1,0.7c0,0.2,0,0.5,0,0.7c0,0.7,0.1,1.3,0.1,1.9c3.1,1.2,6.7,2.4,10.8,3.4
	c0.1-0.1,0.3-0.2,0.4-0.3c0.5-0.4,0.9-0.9,1.2-1.5c-4-5.6-15-18.4-34.6-20.9c0,0,1.9,10.8,20.4,18.7c0-0.8,0.1-1.7,0.1-2.7
	L145.4,76.1z"/>
<path class="st1" d="M96.7,60.4c0,0,4.2,18.1,43.2,27.8C139.9,88.1,126,65.5,96.7,60.4z"/>
<path class="st1" d="M70.1,63.2c19.2,22.1,45,24.7,45,24.7C87.1,59.6,70.1,63.2,70.1,63.2z"/>
<path class="st1" d="M40.7,60.7c19.2,22.1,45,24.7,45,24.7C57.7,57.1,40.7,60.7,40.7,60.7z"/>
<path class="st2" d="M106.5,27c-38.8,8.7-44.8,25-44.8,25C90.6,47.5,106.5,27,106.5,27z"/>
<path class="st2" d="M92.4,53.2c28.9-4.5,44.8-25,44.8-25C98.4,36.8,92.4,53.2,92.4,53.2z"/>
<path class="st2" d="M158.9,24.4C130.8,40.2,129.5,54,129.5,54C150.8,43.6,158.9,24.4,158.9,24.4z"/>
<path class="st2" d="M155.1,47.7c0.4,0,0.9,0,1.4,0.1c0.1,0,0.2,0,0.3,0c13.2-8.6,18.7-20.3,18.7-20.3c-16.9,8.7-23.1,17-25.2,21.3
	c0.7-0.3,1.4-0.6,2.1-0.8C153.2,47.8,154.1,47.7,155.1,47.7z"/>
<path class="st2" d="M149.4,51.7c-0.1,0.1-0.1,0.1-0.1,0.2c1.4-0.6,2.7-1.3,4-2c-0.6,0.1-1.3,0.2-1.8,0.5
	C150.7,50.7,150,51.1,149.4,51.7z"/>
<path class="st2" d="M200.9,25.4c-24.7,11-27.1,22.3-27.1,22.3C192.4,40.7,200.9,25.4,200.9,25.4z"/>
<path class="st2" d="M222.9,18.8c-24.2,14.3-28,24.4-28,24.4C213,33.5,222.9,18.8,222.9,18.8z"/>
<path class="st3" d="M154,49.9c0.9,0,1.7,0.1,2.5,0.4c0.7,0.3,1.4,0.7,1.9,1.2c0.5,0.5,0.9,1.2,1.2,2c0.3,0.8,0.4,1.7,0.4,2.8
	c0,0.4,0,0.7,0,1.1l1.5,0.1c0-0.8,0.1-1.5,0.1-2.2c0-0.7,0.1-1.3,0.1-1.9c0-0.6,0-1.1,0-1.6c0-0.5,0-0.9,0-1.2
	c0-0.3-0.1-0.6-0.3-0.8c-0.2-0.3-0.5-0.5-0.8-0.7c-0.3-0.2-0.7-0.4-1.2-0.6c-0.4-0.2-0.9-0.3-1.4-0.4c-0.4-0.1-0.8-0.2-1.2-0.2
	c-1.1,0.7-2.2,1.4-3.4,2.1C153.5,49.9,153.7,49.9,154,49.9z"/>
<path class="st3" d="M154.4,83.8c-0.9,0.3-1.8,0.4-2.8,0.4s-1.8-0.1-2.6-0.4c-0.8-0.2-1.4-0.6-2-1.2c-0.6-0.5-1-1.2-1.3-2.1
	c-0.1-0.4-0.2-0.8-0.3-1.2c-0.6-0.2-1.1-0.5-1.7-0.7c0,0.7-0.1,1.4-0.1,2c0,1.3-0.1,2.4-0.1,3.1c0,0.3,0.2,0.6,0.6,0.9
	c0.4,0.3,0.9,0.6,1.5,0.8c0.6,0.2,1.4,0.4,2.2,0.6c0.9,0.1,1.8,0.2,2.7,0.2c0.7,0,1.5-0.1,2.4-0.2c0.9-0.2,1.7-0.4,2.6-0.8
	c0.9-0.4,1.7-0.8,2.5-1.4c0.2-0.2,0.5-0.4,0.7-0.6c-0.9-0.2-1.7-0.4-2.5-0.6C155.7,83.2,155.1,83.5,154.4,83.8z"/>
<path class="st3" d="M158.3,67.5c-0.6-0.4-1.1-0.8-1.8-1.2c-0.6-0.4-1.2-0.7-1.8-1.1c-0.6-0.4-1.2-0.7-1.8-1.1c-0.5-0.3-1-0.6-1.5-1
	c1.8,2,4.7,4.3,8.9,6.3c-0.2-0.2-0.3-0.4-0.5-0.6C159.4,68.4,158.9,67.9,158.3,67.5z"/>
<path class="st1" d="M145.3,77.5c0-0.2,0-0.5,0-0.7c0-0.2,0-0.5,0.1-0.7l-1.5-0.1c-0.1,1-0.1,1.9-0.1,2.7c0.5,0.2,1.1,0.5,1.7,0.7
	C145.3,78.8,145.3,78.2,145.3,77.5z"/>
<path class="st1" d="M156.7,82.4c-0.1,0.1-0.3,0.2-0.4,0.3c0.8,0.2,1.7,0.4,2.5,0.6c0.2-0.1,0.3-0.3,0.5-0.4c-0.3-0.5-0.7-1.2-1.4-2
	C157.6,81.5,157.2,82,156.7,82.4z"/>
<path class="st3" d="M149.3,51.9c0-0.1,0.1-0.1,0.1-0.2c0.6-0.6,1.2-1,2-1.4c0.6-0.2,1.2-0.4,1.8-0.5c1.2-0.7,2.3-1.3,3.4-2.1
	c-0.1,0-0.2,0-0.3,0c-0.5-0.1-0.9-0.1-1.4-0.1c-0.9,0-1.9,0.1-2.8,0.3c-0.7,0.2-1.4,0.5-2.1,0.8c-1,2-1.2,3.1-1.2,3.1
	C149.1,52,149.2,51.9,149.3,51.9z"/>
<path class="st3" d="M183.3,83.8c-0.5,0.1-1,0.2-1.5,0.2c-0.3,0-0.6,0-0.8-0.1c-0.2-0.1-0.4-0.3-0.5-0.5c-0.1-0.3-0.2-0.6-0.3-1
	s-0.1-1-0.1-1.7c0-0.4,0-0.9,0-1.4c0-0.5,0.1-1.1,0.1-1.7s0.1-1.2,0.2-1.9c0-0.3,0.1-0.6,0.1-1c-1-0.1-2-0.2-2.9-0.3
	c0,0.6-0.1,1.2-0.2,1.9c-0.1,0.8-0.1,1.7-0.2,2.6s-0.1,1.8-0.1,2.6c0,0.7,0,1.3,0.1,1.9c0,0.6,0.1,1.1,0.3,1.6s0.3,0.8,0.6,1.1
	c0.3,0.3,0.7,0.4,1.1,0.4c0.4,0,0.9-0.1,1.4-0.2c0.5-0.1,1.1-0.3,1.6-0.5c0.5-0.2,1.1-0.5,1.6-0.7c0.5-0.3,0.9-0.5,1.2-0.8l-0.3-0.7
	C184.4,83.5,183.8,83.7,183.3,83.8z"/>
<path class="st3" d="M167.6,78.5L167.6,78.5c0-1.3,0.1-2.5,0.2-3.6c0.1-0.9,0.1-1.7,0.2-2.6c-0.9-0.3-1.8-0.5-2.7-0.8
	c0,0.8-0.1,1.6-0.1,2.4c-0.1,1.6-0.2,3.1-0.2,4.5c-0.1,1.4-0.1,2.8-0.2,4.1c-0.1,1.3-0.1,2.4-0.2,3.5l0.2,0l2.9-0.4
	c0.1-1.3,0.2-2.7,0.5-4c0.3-1.3,0.6-2.6,1.1-3.8c0.4-1.2,0.9-2.3,1.4-3.4c0.2-0.5,0.5-0.9,0.7-1.3c-0.5-0.1-1-0.2-1.5-0.3
	C169,74.4,168.3,76.3,167.6,78.5z"/>
<path class="st3" d="M180.5,68.8c-0.2-0.6-0.5-1.2-0.9-1.6c-0.4-0.4-0.8-0.7-1.2-0.9s-1-0.3-1.5-0.3c-0.5,0-1,0.1-1.6,0.3
	c2.2,1.5,4,3,5.4,4.3C180.7,70,180.6,69.3,180.5,68.8z"/>
<path class="st3" d="M168.7,62.4c0.1-1.1,0.2-2.4,0.4-3.7c0.1-1.3,0.3-2.7,0.4-4.3c0.2-1.5,0.3-3.2,0.6-5c-0.6-0.3-1.2-0.4-1.7-0.4
	c-0.3,0-0.5,0-0.7,0.1c-0.2,0-0.4,0.1-0.6,0.2c-0.2,0.1-0.3,0.2-0.5,0.4s-0.2,0.3-0.2,0.6c-0.1,1.4-0.1,2.9-0.2,4.4
	s-0.2,3.1-0.2,4.7c0,0.7-0.1,1.3-0.1,2c1,0.4,2,0.8,2.9,1.2C168.7,62.5,168.7,62.5,168.7,62.4z"/>
<path class="st3" d="M180.6,73.7c0-0.6,0.1-1.1,0.1-1.5c0-0.5,0-0.8,0-1.1c0-0.1,0-0.3,0-0.4c-1.4-1.3-3.2-2.8-5.4-4.3
	c-0.2,0.1-0.5,0.2-0.7,0.3c-0.8,0.4-1.6,1.2-2.4,2.1c-0.8,1-1.6,2.3-2.4,3.8c0,0,0,0.1-0.1,0.1c0.5,0.1,1,0.2,1.5,0.3
	c0.3-0.5,0.6-1,1-1.5c0.6-0.8,1.1-1.4,1.7-1.8c0.6-0.4,1.1-0.7,1.6-0.7c0.7,0,1.2,0.2,1.6,0.7c0.4,0.5,0.6,1.2,0.6,2.2
	c0,0.4,0,1-0.1,1.6c0,0.1,0,0.3,0,0.4c0.9,0.1,1.9,0.2,2.9,0.3C180.6,74.3,180.6,74,180.6,73.7z"/>
<path class="st3" d="M168,71.7c0.1-1,0.1-2,0.2-3s0.2-2,0.2-3c0.1-1,0.2-2,0.3-3.1c-0.9-0.4-1.9-0.9-2.9-1.2c-0.1,1-0.1,1.9-0.2,2.9
	c-0.1,1.6-0.2,3.3-0.3,4.9c0,0.8-0.1,1.6-0.1,2.4c0.9,0.3,1.8,0.6,2.7,0.8C168,72.1,168,71.9,168,71.7z"/>
<path class="st3" d="M202.8,84.5c-0.8,0-1.4-0.3-1.9-1c-0.5-0.7-0.7-1.6-0.7-2.9c0-0.8,0-1.6,0.1-2.5c0-0.8,0.1-1.6,0.2-2.4
	c0.1-0.8,0.1-1.5,0.2-2.2s0.1-1.4,0.1-2c0-0.9-0.1-1.6-0.3-2.3c-0.2-0.7-0.5-1.3-0.9-1.7c-0.4-0.5-1-0.8-1.6-1.1
	c-0.7-0.3-1.5-0.4-2.4-0.4c-0.5,0-1.1,0.1-1.7,0.2c-0.6,0.1-1.2,0.3-1.8,0.5c-0.6,0.2-1.2,0.5-1.7,0.8c-0.6,0.3-1,0.7-1.5,1
	s-0.8,0.8-1,1.3c-0.3,0.5-0.4,1-0.4,1.5c0,0.3,0.1,0.6,0.2,0.9c0.1,0.3,0.3,0.5,0.5,0.7c0.2,0.2,0.4,0.3,0.7,0.4
	c0.3,0.1,0.6,0.1,0.9,0.1c0.5,0,1-0.1,1.5-0.4l0.1-0.1c-0.3-0.4-0.5-0.8-0.7-1.3c-0.2-0.4-0.2-0.9-0.2-1.3c0-0.4,0.1-0.7,0.2-1
	c0.1-0.3,0.3-0.6,0.6-0.8c0.3-0.2,0.6-0.4,1.1-0.6c0.4-0.1,1-0.2,1.6-0.2c0.5,0,1,0.1,1.4,0.2c0.5,0.2,0.9,0.4,1.3,0.7
	c0.4,0.3,0.7,0.8,0.9,1.3c0.2,0.5,0.4,1.1,0.4,1.8c0,0.6,0,1.2-0.1,1.8c0,0.5-0.1,1.1-0.2,1.6c-1,0-1.9,0.1-2.9,0.2
	c-0.9,0.1-1.8,0.3-2.7,0.6s-1.6,0.6-2.3,0.9c-0.7,0.4-1.3,0.8-1.9,1.3c-0.5,0.5-0.9,1.1-1.2,1.7c-0.3,0.6-0.4,1.4-0.4,2.2
	c0,0.6,0.1,1.2,0.3,1.7c0.2,0.5,0.5,1,0.8,1.3c0.4,0.4,0.8,0.7,1.3,0.9c0.5,0.2,1.1,0.3,1.7,0.3c0.8,0,1.5-0.2,2.2-0.5
	c0.7-0.4,1.3-0.8,1.9-1.4c0.6-0.6,1.2-1.3,1.7-2c0.5-0.8,1-1.5,1.3-2.3h0.1c0,0.3-0.1,0.5-0.1,0.7c0,0.2,0,0.5,0,0.7
	c0,0.8,0.1,1.5,0.3,2.1c0.2,0.6,0.5,1.1,0.8,1.5c0.4,0.4,0.8,0.7,1.3,0.9c0.5,0.2,1,0.3,1.6,0.3c0.8,0,1.5-0.2,2.2-0.5
	c0.7-0.3,1.4-0.8,2-1.4l-0.4-0.6C204.3,84.3,203.5,84.5,202.8,84.5z M196.9,78.2c-0.2,0.6-0.5,1.2-0.8,1.7s-0.6,1.1-1,1.5
	c-0.4,0.5-0.8,0.9-1.2,1.2c-0.4,0.3-0.8,0.6-1.3,0.8c-0.4,0.2-0.8,0.3-1.3,0.3c-0.4,0-0.7-0.1-0.9-0.2c-0.3-0.1-0.5-0.3-0.6-0.6
	c-0.2-0.2-0.3-0.5-0.4-0.8c-0.1-0.3-0.1-0.7-0.1-1c0-0.6,0.1-1.2,0.3-1.6c0.2-0.5,0.5-0.9,0.9-1.2c0.4-0.3,0.8-0.6,1.3-0.9
	s1-0.4,1.6-0.6c0.6-0.1,1.2-0.2,1.9-0.3c0.7-0.1,1.3-0.1,2-0.1C197.3,76.9,197.1,77.6,196.9,78.2z"/>
<path class="st3" d="M237.2,83.8c-0.5,0.1-1,0.2-1.5,0.2c-0.3,0-0.6,0-0.8-0.1c-0.2-0.1-0.4-0.3-0.5-0.5c-0.1-0.3-0.2-0.6-0.3-1
	c-0.1-0.4-0.1-1-0.1-1.7c0-0.4,0-0.9,0-1.4s0.1-1.1,0.1-1.7c0-0.6,0.1-1.2,0.2-1.8c0.1-0.6,0.1-1.2,0.2-1.8c0-0.6,0.1-1.1,0.1-1.5
	c0-0.5,0-0.8,0-1.1c0-0.9-0.1-1.7-0.3-2.4s-0.5-1.2-0.8-1.6c-0.3-0.4-0.7-0.7-1.1-0.9c-0.4-0.2-0.9-0.3-1.3-0.3
	c-0.7,0-1.4,0.2-2.2,0.6s-1.5,1.1-2.2,2c-0.7,1-1.5,2.2-2.2,3.8c-0.7,1.6-1.4,3.5-2,5.8l-0.1,0c0-0.4,0.1-0.9,0.2-1.4
	c0.1-0.6,0.1-1.1,0.2-1.8c0.1-0.6,0.1-1.2,0.1-1.9c0-0.6,0.1-1.2,0.1-1.8c0-0.6-0.1-1.3-0.2-1.9s-0.3-1.2-0.6-1.7
	c-0.3-0.5-0.6-0.9-1.1-1.2c-0.4-0.3-1-0.5-1.6-0.5c-0.7,0-1.4,0.2-2.2,0.6s-1.5,1.1-2.2,2c-0.7,1-1.5,2.2-2.2,3.8
	c-0.7,1.5-1.4,3.5-2,5.7l-0.1,0c0.1-1.3,0.2-2.5,0.3-3.6c0.1-1.1,0.2-2.2,0.2-3c0.1-0.9,0.1-1.6,0.2-2.2c0-0.6,0.1-1,0.1-1.2
	c0-0.8-0.1-1.3-0.4-1.6c-0.3-0.3-0.7-0.5-1.2-0.5c-0.2,0-0.5,0-0.9,0.1c-0.4,0.1-0.8,0.2-1.3,0.3c-0.5,0.1-1,0.3-1.6,0.5
	c-0.6,0.2-1.2,0.4-1.8,0.6l0.2,1c0.6-0.2,1.1-0.3,1.5-0.4c0.4-0.1,0.8-0.1,1.2-0.1c0.2,0,0.4,0,0.6,0.1c0.2,0.1,0.3,0.2,0.4,0.3
	c0.1,0.1,0.2,0.3,0.2,0.6s0.1,0.6,0.1,0.9c0,0.4,0,1,0,1.7c0,0.7,0,1.5-0.1,2.4c0,0.9-0.1,1.8-0.1,2.9c0,1-0.1,2-0.1,3.1
	c-0.1,1-0.1,2.1-0.2,3.1S208,85.1,208,86l0.2,0l2.8-0.4c0.1-1.3,0.2-2.7,0.5-4c0.3-1.3,0.6-2.6,1-3.8s0.8-2.3,1.3-3.3
	c0.5-1,1-1.9,1.5-2.7c0.5-0.8,1-1.3,1.6-1.8c0.5-0.4,1-0.6,1.5-0.6c0.5,0,1,0.3,1.3,0.8c0.3,0.5,0.5,1.3,0.5,2.3
	c0,0.5,0,1.1-0.1,1.9c0,0.8-0.1,1.7-0.2,2.8c-0.1,1.1-0.1,2.4-0.2,3.8c-0.1,1.5-0.2,3.1-0.3,5l0.2,0l2.8-0.4c0.1-1.3,0.3-2.7,0.5-4
	c0.3-1.3,0.6-2.6,1-3.8s0.8-2.3,1.3-3.4c0.5-1,1-1.9,1.5-2.7c0.5-0.8,1-1.4,1.6-1.8c0.5-0.4,1-0.7,1.5-0.7c0.6,0,1.1,0.2,1.4,0.7
	c0.3,0.5,0.5,1.2,0.5,2.2c0,0.3,0,0.8-0.1,1.5c-0.1,0.7-0.1,1.4-0.2,2.2c-0.1,0.8-0.1,1.7-0.2,2.6c-0.1,0.9-0.1,1.8-0.1,2.6
	c0,0.7,0,1.3,0.1,1.9c0,0.6,0.1,1.1,0.3,1.6c0.1,0.4,0.3,0.8,0.6,1.1c0.3,0.3,0.7,0.4,1.1,0.4c0.4,0,0.9-0.1,1.4-0.2
	c0.5-0.1,1.1-0.3,1.6-0.5c0.5-0.2,1.1-0.5,1.6-0.7c0.5-0.3,0.9-0.5,1.2-0.8l-0.3-0.7C238.3,83.5,237.7,83.7,237.2,83.8z"/>
<g>
	<path class="st0" d="M31.2,43.5c-0.4-1.6-1.1-3.1-2.1-4.2c-1-1.2-2.3-2.1-3.8-2.8c-1.6-0.7-3.5-1-5.8-1c-0.6,0-1.1,0-1.7,0
		c-0.6,0-1.2,0.1-1.8,0.1c0,0.4,0,1.1,0,2c0,0.9,0,1.9-0.1,3.1c0,1.2-0.1,2.5-0.1,3.9c0,0.5,0,1,0,1.6c3.7,1.5,8.9,3,16.1,4.4
		c0-0.6,0.1-1.1,0.1-1.7C31.9,46.9,31.7,45.1,31.2,43.5z"/>
	<path class="st0" d="M15.5,53.3c-0.1,1.4-0.1,2.8-0.2,4.1s-0.1,2.5-0.2,3.5c-0.1,1-0.1,1.9-0.2,2.6c0.9,0.2,1.7,0.4,2.5,0.5
		c0.8,0.1,1.5,0.1,2.2,0.1c1.5,0,2.9-0.2,4-0.6c1.2-0.4,2.2-0.9,3.1-1.6c0.9-0.7,1.7-1.5,2.3-2.4s1.1-2,1.5-3.1
		c0.2-0.6,0.4-1.3,0.6-2c-5.7-0.9-11.1-2-15.7-3.3C15.5,51.7,15.5,52.5,15.5,53.3z"/>
	<path class="st1" d="M92.3,54.5c-25.9,0.5-44.1-1.1-56.9-3.2c-0.1,0.5-0.1,0.9-0.2,1.4c-0.2,0.7-0.4,1.5-0.6,2.1
		C61.3,58.3,94,57.1,94,57.1c93.4,3.4,139.9-25.4,139.9-25.4l3-1.9C176.6,60.6,92.3,54.5,92.3,54.5z"/>
	<path class="st1" d="M12.4,44.7c-4-1.9-5.2-3.4-5.2-3.4l-2.8,4.3c2,1.6,4.7,3,8,4.2c0-1.6,0.1-3.2,0.1-5
		C12.4,44.9,12.4,44.8,12.4,44.7z"/>
	<path class="st1" d="M15.6,48.9c0,0.7,0,1.4-0.1,2.1c4.6,1.4,10,2.5,15.7,3.3c0.1-0.5,0.2-1,0.3-1.5c0.1-0.7,0.2-1.4,0.2-2.2
		c-7.2-1.4-12.4-3-16.1-4.4C15.7,47.1,15.7,48,15.6,48.9z"/>
	<path class="st3" d="M30.7,56.3c-0.4,1.1-0.9,2.1-1.5,3.1s-1.4,1.7-2.3,2.4c-0.9,0.7-1.9,1.2-3.1,1.6c-1.2,0.4-2.5,0.6-4,0.6
		c-0.7,0-1.5,0-2.2-0.1c-0.8-0.1-1.6-0.2-2.5-0.5c0.1-0.7,0.1-1.5,0.2-2.6c0.1-1,0.1-2.2,0.2-3.5s0.1-2.7,0.2-4.1
		c0-0.8,0.1-1.5,0.1-2.3c-1.1-0.3-2.2-0.7-3.3-1.1c0,0.2,0,0.4,0,0.6c0,1.8-0.1,3.4-0.2,5c-0.1,1.5-0.1,2.9-0.2,4.2
		c-0.1,1.3-0.1,2.4-0.2,3.3c-0.1,0.9-0.1,1.7-0.2,2.3l0.2,0l2.7-0.3c0.9,0.2,1.9,0.4,2.7,0.5s1.7,0.2,2.6,0.2c1.6,0,3.2-0.2,4.6-0.6
		c1.4-0.4,2.7-1,3.9-1.8c1.2-0.8,2.2-1.7,3.2-2.8c0.9-1.1,1.7-2.3,2.3-3.6c0.3-0.7,0.6-1.4,0.9-2.1c-1.1-0.1-2.2-0.3-3.3-0.5
		C31.1,55,31,55.7,30.7,56.3z"/>
	<path class="st3" d="M15.8,44.6c0-1.4,0.1-2.7,0.1-3.9c0-1.2,0-2.2,0.1-3.1c0-0.9,0-1.6,0-2c0.6,0,1.2-0.1,1.8-0.1
		c0.6,0,1.1,0,1.7,0c2.3,0,4.2,0.3,5.8,1c1.6,0.7,2.9,1.6,3.8,2.8c1,1.2,1.7,2.6,2.1,4.2c0.4,1.6,0.7,3.5,0.7,5.4
		c0,0.6,0,1.1-0.1,1.7c1.2,0.2,2.4,0.4,3.6,0.7c0.2-1.1,0.3-2.3,0.3-3.4c0-1.9-0.2-3.5-0.6-4.9c-0.4-1.4-0.9-2.6-1.6-3.7
		c-0.7-1-1.5-1.9-2.5-2.6c-1-0.7-2-1.3-3.2-1.7c-1.2-0.4-2.4-0.7-3.7-0.9c-1.3-0.2-2.7-0.3-4.1-0.3c-1,0-2,0-3.1,0.1
		c-1,0.1-2.1,0.2-3.1,0.3c-1,0.1-2,0.3-3,0.4s-2,0.3-2.9,0.5L8,36.4c0.9-0.1,1.7-0.2,2.3-0.2c0.5,0,0.9,0.1,1.2,0.2s0.5,0.3,0.7,0.5
		s0.2,0.5,0.3,0.8s0.1,0.7,0.1,1.1c0,2.1,0,4,0,6c0.9,0.5,2,0.9,3.3,1.4C15.7,45.7,15.8,45.1,15.8,44.6z"/>
	<path class="st3" d="M35.4,51.3c-1.3-0.2-2.5-0.4-3.6-0.7c0,0.7-0.1,1.5-0.2,2.2c-0.1,0.5-0.2,1-0.3,1.5c1.1,0.2,2.2,0.3,3.3,0.5
		c0.2-0.7,0.4-1.4,0.6-2.1C35.3,52.2,35.3,51.7,35.4,51.3z"/>
	<path class="st1" d="M15.6,48.9c0-0.9,0.1-1.8,0.1-2.7c-1.3-0.5-2.4-1-3.3-1.4c0,0.1,0,0.1,0,0.2c0,1.7-0.1,3.4-0.1,5
		c1,0.4,2.1,0.7,3.3,1.1C15.6,50.3,15.6,49.6,15.6,48.9z"/>
	<path class="st3" d="M49.9,51.2c0-0.7-0.1-1.3-0.4-1.8c-0.2-0.5-0.5-0.9-0.9-1.3c-0.4-0.3-0.8-0.6-1.3-0.7c-0.5-0.2-1-0.2-1.4-0.2
		c-0.6,0-1.2,0.1-1.6,0.2s-0.8,0.3-1.1,0.6s-0.5,0.5-0.6,0.8c-0.1,0.3-0.2,0.7-0.2,1c0,0.4,0.1,0.9,0.2,1.3c0.2,0.4,0.4,0.9,0.7,1.3
		l-0.1,0.1c-0.5,0.3-1,0.4-1.5,0.4c-0.3,0-0.6,0-0.9-0.1c-0.3-0.1-0.5-0.2-0.7-0.4c-0.2-0.2-0.3-0.4-0.5-0.7
		c-0.1-0.3-0.2-0.6-0.2-0.9c0-0.5,0.1-1,0.4-1.5s0.6-0.9,1-1.3c0.4-0.4,0.9-0.7,1.5-1c0.6-0.3,1.1-0.6,1.7-0.8
		c0.6-0.2,1.2-0.4,1.8-0.5c0.6-0.1,1.2-0.2,1.7-0.2c0.9,0,1.7,0.1,2.4,0.4c0.7,0.3,1.2,0.6,1.6,1.1c0.4,0.5,0.7,1.1,0.9,1.7
		s0.3,1.5,0.3,2.3c0,0.6,0,1.2-0.1,2s-0.1,1.5-0.2,2.2c-0.1,0.8-0.1,1.6-0.2,2.4s-0.1,1.6-0.1,2.5c0,1.3,0.2,2.3,0.7,2.9
		c0.5,0.7,1.1,1,1.9,1c0.7,0,1.5-0.3,2.3-0.8l0.4,0.6c-0.6,0.6-1.3,1.1-2,1.4c-0.7,0.3-1.5,0.5-2.2,0.5c-0.6,0-1.1-0.1-1.6-0.3
		c-0.5-0.2-0.9-0.5-1.3-0.9c-0.4-0.4-0.6-0.9-0.8-1.5c-0.2-0.6-0.3-1.3-0.3-2.1c0-0.2,0-0.5,0-0.7s0-0.5,0.1-0.7h-0.1
		c-0.4,0.8-0.8,1.5-1.3,2.3s-1.1,1.4-1.7,2c-0.6,0.6-1.3,1.1-1.9,1.4c-0.7,0.4-1.4,0.5-2.2,0.5c-0.6,0-1.2-0.1-1.7-0.3
		c-0.5-0.2-1-0.5-1.3-0.9c-0.4-0.4-0.6-0.8-0.8-1.3s-0.3-1.1-0.3-1.7c0-0.8,0.1-1.5,0.4-2.2c0.3-0.6,0.7-1.2,1.2-1.7
		c0.5-0.5,1.1-1,1.9-1.3c0.7-0.4,1.5-0.7,2.3-0.9c0.8-0.2,1.7-0.4,2.7-0.6c0.9-0.1,1.9-0.2,2.9-0.2c0.1-0.6,0.1-1.1,0.2-1.6
		C49.9,52.5,49.9,51.9,49.9,51.2z M41.7,60.5c0,0.4,0,0.7,0.1,1c0.1,0.3,0.2,0.6,0.4,0.8s0.4,0.4,0.6,0.6c0.3,0.1,0.6,0.2,0.9,0.2
		c0.4,0,0.8-0.1,1.3-0.3c0.4-0.2,0.9-0.4,1.3-0.8c0.4-0.3,0.8-0.7,1.2-1.2c0.4-0.5,0.7-1,1-1.5c0.3-0.5,0.6-1.1,0.8-1.7
		c0.2-0.6,0.3-1.2,0.4-1.9c-0.7,0-1.3,0.1-2,0.1c-0.7,0.1-1.3,0.2-1.9,0.3c-0.6,0.1-1.1,0.3-1.6,0.6s-0.9,0.5-1.3,0.9
		c-0.4,0.3-0.6,0.8-0.9,1.2C41.8,59.3,41.7,59.9,41.7,60.5z"/>
	<path class="st3" d="M56.7,47.2c0.6-0.2,1.3-0.4,1.8-0.6c0.6-0.2,1.1-0.3,1.6-0.5s0.9-0.2,1.3-0.3c0.4-0.1,0.7-0.1,0.9-0.1
		c0.5,0,0.9,0.2,1.2,0.5c0.3,0.3,0.4,0.8,0.4,1.6c0,0.2,0,0.6-0.1,1.2c0,0.6-0.1,1.3-0.2,2.2s-0.2,1.9-0.2,3s-0.2,2.4-0.3,3.6l0.1,0
		c0.6-2.3,1.3-4.2,2-5.7c0.7-1.6,1.4-2.8,2.2-3.8c0.7-1,1.5-1.6,2.2-2c0.7-0.4,1.5-0.6,2.2-0.6c0.6,0,1.1,0.2,1.6,0.5
		c0.4,0.3,0.8,0.7,1.1,1.2c0.3,0.5,0.5,1.1,0.6,1.7c0.1,0.6,0.2,1.3,0.2,1.9c0,0.6,0,1.2-0.1,1.8c0,0.6-0.1,1.3-0.1,1.9
		c-0.1,0.6-0.1,1.2-0.2,1.8c-0.1,0.6-0.1,1-0.2,1.4l0.1,0c0.6-2.3,1.3-4.3,2-5.8c0.7-1.6,1.4-2.8,2.2-3.8s1.5-1.6,2.2-2
		c0.7-0.4,1.5-0.6,2.2-0.6c0.4,0,0.9,0.1,1.3,0.3c0.4,0.2,0.8,0.5,1.1,0.9c0.3,0.4,0.6,1,0.8,1.6c0.2,0.7,0.3,1.4,0.3,2.4
		c0,0.3,0,0.6,0,1.1c0,0.5-0.1,1-0.1,1.5c0,0.6-0.1,1.1-0.2,1.8s-0.1,1.2-0.2,1.8c0,0.6-0.1,1.2-0.1,1.7c0,0.5,0,1,0,1.4
		c0,0.7,0,1.3,0.1,1.7s0.2,0.8,0.3,1c0.1,0.3,0.3,0.4,0.5,0.5c0.2,0.1,0.5,0.1,0.8,0.1c0.5,0,1-0.1,1.5-0.2s1-0.3,1.5-0.5l0.3,0.7
		c-0.3,0.3-0.7,0.5-1.2,0.8c-0.5,0.3-1,0.5-1.6,0.7c-0.5,0.2-1.1,0.4-1.6,0.5c-0.5,0.1-1,0.2-1.4,0.2c-0.5,0-0.9-0.1-1.1-0.4
		s-0.5-0.6-0.6-1.1s-0.2-1-0.3-1.6c0-0.6-0.1-1.2-0.1-1.9c0-0.8,0-1.7,0.1-2.6s0.1-1.8,0.2-2.6c0.1-0.8,0.1-1.6,0.2-2.2
		c0.1-0.7,0.1-1.2,0.1-1.5c0-1-0.2-1.7-0.5-2.2c-0.3-0.5-0.8-0.7-1.4-0.7c-0.5,0-0.9,0.2-1.5,0.7c-0.5,0.4-1,1-1.5,1.8
		c-0.5,0.8-1,1.7-1.5,2.7c-0.5,1-0.9,2.2-1.3,3.4c-0.4,1.2-0.7,2.5-1,3.8c-0.3,1.3-0.4,2.7-0.5,4l-2.8,0.4l-0.2,0
		c0.1-1.9,0.2-3.6,0.3-5c0.1-1.5,0.2-2.7,0.2-3.8c0.1-1.1,0.1-2,0.2-2.8c0-0.8,0.1-1.4,0.1-1.9c0-1-0.2-1.8-0.5-2.3
		c-0.3-0.5-0.8-0.8-1.3-0.8c-0.5,0-1,0.2-1.5,0.6c-0.5,0.4-1,1-1.6,1.8C67,52.1,66.5,53,66,54c-0.5,1-0.9,2.1-1.3,3.3
		c-0.4,1.2-0.7,2.5-1,3.8c-0.3,1.3-0.4,2.6-0.5,4l-2.8,0.4l-0.2,0c0.1-0.9,0.1-1.8,0.2-2.8c0.1-1,0.1-2,0.2-3.1
		c0.1-1,0.1-2.1,0.1-3.1c0-1,0.1-2,0.1-2.9c0-0.9,0.1-1.7,0.1-2.4c0-0.7,0-1.3,0-1.7c0-0.4,0-0.7-0.1-0.9c-0.1-0.3-0.1-0.5-0.2-0.6
		c-0.1-0.1-0.3-0.3-0.4-0.3c-0.2-0.1-0.4-0.1-0.6-0.1c-0.3,0-0.7,0-1.2,0.1c-0.4,0.1-1,0.2-1.5,0.4L56.7,47.2z"/>
	<path class="st3" d="M103.8,51.2c0-0.7-0.1-1.3-0.4-1.8c-0.2-0.5-0.5-0.9-0.9-1.3c-0.4-0.3-0.8-0.6-1.3-0.7c-0.5-0.2-1-0.2-1.4-0.2
		c-0.6,0-1.2,0.1-1.6,0.2c-0.4,0.1-0.8,0.3-1.1,0.6s-0.5,0.5-0.6,0.8c-0.1,0.3-0.2,0.7-0.2,1c0,0.4,0.1,0.9,0.2,1.3
		c0.2,0.4,0.4,0.9,0.7,1.3l-0.1,0.1c-0.5,0.3-1,0.4-1.5,0.4c-0.3,0-0.6,0-0.9-0.1c-0.3-0.1-0.5-0.2-0.7-0.4
		c-0.2-0.2-0.3-0.4-0.5-0.7s-0.2-0.6-0.2-0.9c0-0.5,0.1-1,0.4-1.5s0.6-0.9,1-1.3c0.4-0.4,0.9-0.7,1.5-1s1.1-0.6,1.7-0.8
		c0.6-0.2,1.2-0.4,1.8-0.5c0.6-0.1,1.2-0.2,1.7-0.2c0.9,0,1.8,0.1,2.4,0.4c0.7,0.3,1.2,0.6,1.6,1.1c0.4,0.5,0.7,1.1,0.9,1.7
		s0.3,1.5,0.3,2.3c0,0.6,0,1.2-0.1,2c0,0.7-0.1,1.5-0.2,2.2c-0.1,0.8-0.1,1.6-0.2,2.4c0,0.8-0.1,1.6-0.1,2.5c0,1.3,0.2,2.3,0.7,2.9
		c0.5,0.7,1.1,1,1.9,1c0.7,0,1.5-0.3,2.3-0.8l0.4,0.6c-0.6,0.6-1.3,1.1-2,1.4c-0.7,0.3-1.5,0.5-2.2,0.5c-0.6,0-1.1-0.1-1.6-0.3
		c-0.5-0.2-0.9-0.5-1.3-0.9c-0.4-0.4-0.6-0.9-0.8-1.5c-0.2-0.6-0.3-1.3-0.3-2.1c0-0.2,0-0.5,0-0.7s0-0.5,0.1-0.7h-0.1
		c-0.4,0.8-0.8,1.5-1.3,2.3s-1.1,1.4-1.7,2c-0.6,0.6-1.3,1.1-1.9,1.4c-0.7,0.4-1.4,0.5-2.2,0.5c-0.6,0-1.2-0.1-1.7-0.3
		c-0.5-0.2-0.9-0.5-1.3-0.9c-0.4-0.4-0.6-0.8-0.8-1.3c-0.2-0.5-0.3-1.1-0.3-1.7c0-0.8,0.1-1.5,0.4-2.2c0.3-0.6,0.7-1.2,1.2-1.7
		c0.5-0.5,1.1-1,1.9-1.3c0.7-0.4,1.5-0.7,2.3-0.9c0.8-0.2,1.7-0.4,2.7-0.6c0.9-0.1,1.9-0.2,2.9-0.2c0.1-0.6,0.1-1.1,0.2-1.6
		C103.8,52.5,103.8,51.9,103.8,51.2z M95.6,60.5c0,0.4,0,0.7,0.1,1c0.1,0.3,0.2,0.6,0.4,0.8s0.4,0.4,0.6,0.6
		c0.3,0.1,0.6,0.2,0.9,0.2c0.4,0,0.8-0.1,1.3-0.3c0.4-0.2,0.9-0.4,1.3-0.8c0.4-0.3,0.8-0.7,1.2-1.2c0.4-0.5,0.7-1,1-1.5
		c0.3-0.5,0.6-1.1,0.8-1.7c0.2-0.6,0.3-1.2,0.4-1.9c-0.7,0-1.3,0.1-2,0.1c-0.7,0.1-1.3,0.2-1.9,0.3s-1.1,0.3-1.6,0.6
		c-0.5,0.2-0.9,0.5-1.3,0.9c-0.4,0.3-0.6,0.8-0.9,1.2C95.7,59.3,95.6,59.9,95.6,60.5z"/>
	<path class="st3" d="M114.3,60.2c0.1,0.7,0.2,1.3,0.5,1.8c0.3,0.5,0.7,0.9,1.1,1.2c0.4,0.3,0.9,0.5,1.5,0.7
		c0.5,0.2,1.1,0.2,1.6,0.2c0.5,0,1-0.1,1.4-0.2c0.5-0.1,0.9-0.3,1.2-0.6c0.4-0.3,0.6-0.6,0.8-0.9s0.3-0.8,0.3-1.2
		c0-0.5-0.1-0.9-0.3-1.3c-0.2-0.4-0.5-0.7-0.9-1c-0.4-0.3-0.8-0.6-1.3-0.8s-1-0.5-1.6-0.8c-0.5-0.2-1-0.5-1.4-0.7
		c-0.5-0.2-0.9-0.5-1.4-0.7c-0.4-0.3-0.9-0.6-1.3-0.9c-0.4-0.3-0.7-0.7-1-1c-0.3-0.4-0.5-0.8-0.7-1.3c-0.2-0.5-0.2-1-0.2-1.6
		c0-0.6,0.1-1.2,0.3-1.7c0.2-0.5,0.5-1,0.9-1.4c0.4-0.4,0.8-0.8,1.3-1.1c0.5-0.3,1-0.6,1.6-0.8c0.6-0.2,1.1-0.4,1.7-0.5
		c0.6-0.1,1.2-0.2,1.7-0.2c0.7,0,1.4,0.1,2,0.2c0.6,0.2,1.2,0.4,1.7,0.7c0.5,0.3,0.9,0.7,1.1,1.1c0.3,0.4,0.4,0.9,0.4,1.5
		c0,0.2,0,0.4-0.1,0.7c-0.1,0.2-0.2,0.5-0.4,0.7c-0.2,0.2-0.4,0.4-0.7,0.5c-0.3,0.1-0.6,0.2-1,0.2c-0.4,0-0.8-0.1-1.2-0.2l0-0.1
		c0.1-0.3,0.2-0.6,0.3-0.8c0.1-0.2,0.1-0.5,0.1-0.7c0-0.4-0.1-0.8-0.3-1c-0.2-0.3-0.5-0.5-0.8-0.7c-0.3-0.2-0.6-0.3-1-0.4
		c-0.4-0.1-0.7-0.1-1.1-0.1c-0.6,0-1.2,0.1-1.7,0.3c-0.5,0.2-0.9,0.4-1.3,0.7c-0.3,0.3-0.6,0.6-0.8,1c-0.2,0.4-0.3,0.7-0.3,1.1
		c0,0.5,0.1,0.9,0.4,1.3c0.3,0.4,0.6,0.8,1,1.1s0.9,0.6,1.5,0.9c0.6,0.3,1.1,0.6,1.8,0.9c0.7,0.3,1.4,0.7,2,1
		c0.7,0.3,1.3,0.7,1.8,1.2c0.5,0.4,1,0.9,1.3,1.5c0.3,0.6,0.5,1.2,0.5,2c0,0.9-0.2,1.7-0.6,2.5c-0.4,0.7-1,1.3-1.6,1.8
		c-0.7,0.5-1.5,0.9-2.4,1.1c-0.9,0.3-1.8,0.4-2.8,0.4c-0.5,0-1,0-1.5-0.1c-0.5-0.1-1-0.2-1.5-0.3c-0.5-0.1-0.9-0.3-1.4-0.5
		c-0.4-0.2-0.8-0.5-1.1-0.7c-0.3-0.3-0.6-0.6-0.8-0.9c-0.2-0.3-0.3-0.7-0.3-1.1c0-0.4,0.1-0.6,0.2-0.9c0.1-0.2,0.3-0.4,0.6-0.6
		c0.2-0.2,0.5-0.3,0.8-0.3c0.3-0.1,0.6-0.1,0.9-0.1L114.3,60.2z"/>
</g>
<path class="st3" d="M151.5,63.2c-0.1,0-0.1-0.1-0.2-0.1c-0.5-0.4-1-0.8-1.5-1.2c-0.5-0.4-0.8-0.9-1.2-1.5c-0.3-0.5-0.6-1.1-0.8-1.8
	c-0.2-0.6-0.3-1.3-0.3-2.1c0-1,0.2-1.8,0.5-2.7c0.3-0.7,0.7-1.4,1.2-1.9c-0.1,0-0.2,0.1-0.2,0.1c0,0,0.2-1.2,1.2-3.1
	c-0.1,0.1-0.3,0.1-0.4,0.2c-0.8,0.4-1.5,1-2.2,1.6c-0.7,0.6-1.2,1.4-1.7,2.2c-0.5,0.8-0.8,1.7-1.1,2.7c-0.3,1-0.4,2-0.4,3.2
	c0,0.9,0.1,1.7,0.3,2.5c0.2,0.7,0.5,1.4,0.8,2.1c0.3,0.6,0.8,1.2,1.2,1.7c0.5,0.5,1,1,1.6,1.4c0.6,0.4,1.1,0.9,1.8,1.2
	c0.6,0.4,1.2,0.8,1.8,1.1c0.6,0.4,1.2,0.7,1.7,1.1c0.6,0.3,1.1,0.7,1.6,1.1c0.5,0.4,1,0.8,1.4,1.2c0.4,0.4,0.8,0.9,1.1,1.4
	c0.3,0.5,0.6,1.1,0.7,1.7c0.2,0.6,0.3,1.3,0.3,2c0,1.1-0.2,2.2-0.6,3c-0.1,0.2-0.2,0.4-0.3,0.7c0.6,0.9,1.1,1.6,1.4,2
	c0.3-0.3,0.6-0.7,0.9-1.1c0.6-0.8,1.1-1.8,1.5-3c0.4-1.1,0.5-2.4,0.5-3.9c0-0.9-0.1-1.7-0.3-2.4c-0.2-0.7-0.5-1.4-0.8-2
	c-0.2-0.4-0.4-0.7-0.7-1C156.2,67.5,153.3,65.2,151.5,63.2z"/>
</svg>
