<?xml version="1.0" encoding="utf-8"?>
<!-- Generator: Adobe Illustrator 26.4.1, SVG Export Plug-In . SVG Version: 6.00 Build 0)  -->
<svg version="1.1" id="Layer_1" xmlns="http://www.w3.org/2000/svg" xmlns:xlink="http://www.w3.org/1999/xlink" x="0px" y="0px"
	 viewBox="0 0 107 60.9" style="enable-background:new 0 0 107 60.9;" xml:space="preserve">
<style type="text/css">
	.st0{fill:#1A98D5;}
	.st1{fill:#B7D434;}
	.st2{fill:#195D2F;}
	.st3{fill:#845F51;}
	.st4{font-family:'CowboyHippiePro';}
	.st5{font-size:48px;}
	.st6{fill:#050606;}
	.st7{fill:#FFFFFF;}
	.st8{fill:#F2EA29;}
	.st9{opacity:0.66;fill:#B7D434;}
</style>
<g>
	<path d="M24.1,29.6V2h3.1v6.1L33.3,2h6.1v9.2h-9.2c-1.7,0-3.1,1.4-3.1,3.1v3.1c0,1.7,1.3,3.1,3.1,3.1h9.2v9.2h-6.1l-6.1-6.1v6.1
		H24.1z"/>
	<path class="st0" d="M45.6,29.6c-1.7,0-3.1-1.3-3.1-3.1V5.1c0-1.7,1.4-3.1,3.1-3.1h6.1c1.7,0,3.1,1.4,3.1,3.1V2h3.1v27.7h-3.1v-3.1
		c0,1.7-1.4,3.1-3.1,3.1H45.6z M51.7,20.4c1.7,0,3.1-1.4,3.1-3.1v-3.1c0-1.6-1.4-3.1-3.1-3.1h-3.1c-1.7,0-3.1,1.4-3.1,3.1v3.1
		c0,1.7,1.3,3.1,3.1,3.1H51.7z"/>
	<path d="M60.9,38.9v-6.1h9.2c1.6,0,3.1-1.4,3.1-3.1v-3.1c0,1.7-1.4,3.1-3.1,3.1H64c-1.7,0-3.1-1.3-3.1-3.1V2H64v15.4
		c0,1.7,1.3,3.1,3.1,3.1h3.1c1.7,0,3.1-1.4,3.1-3.1V2h3.1v33.8c0,1.7-1.4,3.1-3.1,3.1H60.9z"/>
	<path class="st1" d="M84.1,18.6C84.1,18.6,84.1,18.6,84.1,18.6C83.9,18.6,84,18.6,84.1,18.6z"/>
	<path class="st1" d="M84.1,18.7c0,0,0.1,0,0.1,0C84.2,18.7,84.1,18.6,84.1,18.7C84.2,18.7,84.1,18.7,84.1,18.7z"/>
</g>
<path class="st2" d="M6.3,19.8c1.3-2.1,2.6-3.7,2.9-4c0.1,0,0.2-0.1,0.2-0.1c0.6-0.3,1.8,0.1,1.8,0.1c-0.4-0.6-2.1-0.3-2.1-0.3
	c0.1-0.6,1.4-1.4,1.4-1.4c0.6,0.4,2.7-0.2,2.7-0.2c-1.2,0.1-2.4-0.2-2.4-0.2l1.1-1l0.4,0c0.3,0.3,3.3-0.1,3.3-0.1l-1.3,0
	c-0.9,0.1-1.9-0.3-1.9-0.3c0.3-0.7,1.2-1.2,1.2-1.2c0-0.2,2.5-0.5,2.1-0.5c-0.1,0-1.4,0-1.4,0l0.3-0.3c0.5-1,1.6-1,1.6-1
	c0.2,0,2.8-1,0.3-0.2c-0.1,0,0-0.2,0-0.2s0.1-1.4,0-1.3s-0.3,1.3-0.3,1.3c-0.1,0.3-1.3,0.5-1.3,0.5c0,0,0,0,0-0.1
	c0-0.5,0.2-1.6,0.2-1.6c-0.4,0.8-0.6,2-0.6,2C14.5,10.3,13,11,13,11c0.1-0.8-0.2-2.2-0.2-2.2c-0.1,0.7,0.1,1.8,0.1,1.8
	c0,1-1.8,2.4-1.8,2.4C11,11.6,9.9,9.5,9.9,9.5c0.4,1.3,0.8,3,0.8,3c0.2,0.7-1.4,2-1.4,2c-0.2-0.9-0.7-2-0.7-2s0,0.1,0-0.1
	c0,0,0,0,0,0c0-0.1,0-0.1,0,0c0.1,0.3,0.4,1.9,0.4,1.9c0.2,0.9-1.2,2.2-1.2,2.2c-0.1-0.7-0.3-2.1-0.3-2.1c0.1,0.6,0.1,2.3,0.1,2.3
	c0.1,0.3-0.7,1.6-1.2,2.4c0.1-1.7,0.3-3.8,0.4-5.4c0,0,0.4-5.1,5.3-7.1c0,0,10.8-3.7,10.9-4.3c0,0-1.9,4.8-2.5,7.5
	c0,0-1.2,5-5.3,7.3l-7,2.5c-0.1,0-0.2,0.1-0.2,0.2c0,0,0,0,0,0c-0.2,0.2-0.8,0.9-1,1.9c0,0,0,1.3-0.1,2.9c0,1.9-0.1,4.1,0,4.5
	l-0.6-0.5l-0.1-7C6.1,21.8,6.2,21,6.3,19.8z"/>
<text transform="matrix(1 0 0 1 4.0988 57.9577)"><tspan x="0" y="0" class="st3 st4 st5">Te</tspan><tspan x="36.9" y="0" class="st2 st4 st5">a</tspan></text>
<g>
	<path class="st3" d="M87,30.3l1.7-1.6l2.6-0.7l1.7-4.3l1.6-0.2c0,0-0.1,0.6,0.2,0c0.3-0.5,0.1-9.5,0-13.4h-7.8L87,30.3z"/>
	<path class="st3" d="M93.9,5.3c-0.6-5.8-6.9-5-6.9-5l0,9.8h7.8c0-1.1,0-1.7,0-1.7C94.2,5.7,93.9,5.3,93.9,5.3z"/>
	<path class="st3" d="M79.9,5.4c0,0-0.3,0.4-0.8,3c0,0,0,0.7,0,1.7h7.8l0-9.7C86.7,0.4,80.5-0.5,79.9,5.4z"/>
	<path class="st3" d="M79,23.5c0.4,0.6,0.2,0,0.2,0l1.6,0.2l1.7,4.3l2.6,0.7l1.7,1.6l-0.1-20.2H79C78.9,13.9,78.8,23,79,23.5z"/>
	<path class="st6" d="M90.2,8.3V5.9c0,0,0.2-0.6,0.7-0.6c0,0,2-0.2,2.3,0c0,0,1.2-0.2,1.4,2.7l-0.2,0.6l-4-0.3"/>
	<path class="st0" d="M94.8,14.2c0,0,0-5.5-0.1-5.9c0,0-0.5-1.5-2-1c0,0-1.4-0.1-2.5,0.6l-1.5,1.3L88.5,10c0,0,0,1.2,0.8,2
		c0,0,1.8,2.2,3.7,2.4C93,14.4,94,14.6,94.8,14.2z"/>
	<path class="st7" d="M93.2,12.9c0.9-0.1,1.5-1,1.4-1.8c0-0.6-0.3-1-1.1-1.9l-0.3-0.2L93,8.9c-1.8-0.4-3,0.6-3.5,1L88.9,10
		c0-0.3,0.2-1.2,1.3-2.1c0,0-2.1,0.6-3,0.3v2l1.8,0.8c0.1,0.1,0.4,0.6,0.5,0.7l1.4,0.9c0.2,0.2,1.4,0.4,1.6,0.3L93.2,12.9z"/>
	<path class="st7" d="M87.1,10.6l0.6,0c0.3-0.1,0.8,0.4,0.8,0.4c0.1,1.2,2.9,6.4,2.9,6.4c-3.3,1.2-4.2,8.7-4.2,8.7"/>
	<path class="st8" d="M89.9,10.2c0.6-0.4,1.8-1,2.6-0.9c0.1,0,0.1,0,0.2,0c0.3,0.1,1.5,0.6,1.6,2c0,0,0.2,1-1.6,1.4
		c0,0-2.5-0.2-3-1.7C89.6,10.6,89.7,10.4,89.9,10.2z"/>
	<path class="st6" d="M93.7,17.6c0,0-4.9,3.6-5.6,5.5c-0.8,1.9,0.6-3,2.7-4.7"/>
	<circle class="st6" cx="92.1" cy="10.9" r="1.5"/>
	<path class="st6" d="M94.8,23.5l-2.3-0.1c0,0,0.2,2.4-2.2,4.4c0,0-2.5,1.1-3.2,0.7L87,30.3c0,0,2.7,0.2,3.7,0.1
		c0.1,0,0.2,0,0.3-0.1c0.4-0.3,1.4,0.1,2.6-1.5C93.6,28.8,94.4,26.6,94.8,23.5z"/>
	<path class="st6" d="M83.6,8.4V6c0,0-0.2-0.6-0.7-0.6c0,0-2-0.2-2.3,0c0,0-1.2-0.2-1.4,2.7l0.2,0.6l4-0.3"/>
	<path class="st0" d="M79,14.3c0,0,0-5.5,0.1-5.9c0,0,0.5-1.5,2-1c0,0,1.4-0.1,2.5,0.6l1.5,1.3l0.2,0.8c0,0,0,1.2-0.8,2
		c0,0-1.8,2.2-3.7,2.4C80.9,14.4,79.9,14.6,79,14.3z"/>
	<path class="st7" d="M80.7,12.9c-0.9-0.1-1.5-1-1.4-1.8c0-0.6,0.3-1,1.1-1.9L80.7,9l0.2-0.1c1.8-0.4,3,0.6,3.5,1l0.6,0.1
		c0-0.3-0.2-1.2-1.3-2.1c0,0,2.1,0.6,3,0.3v2L84.8,11c-0.1,0.1-0.4,0.6-0.5,0.7l-1.4,0.9c-0.2,0.2-1.4,0.4-1.6,0.3L80.7,12.9z"/>
	<path class="st7" d="M86.7,10.7l-0.6,0c-0.3-0.1-0.8,0.4-0.8,0.4c-0.1,1.2-2.9,6.4-2.9,6.4c3.3,1.2,4.2,8.7,4.2,8.7"/>
	<path class="st8" d="M83.9,10.2c-0.6-0.4-1.8-1-2.6-0.9c-0.1,0-0.1,0-0.2,0c-0.3,0.1-1.5,0.6-1.6,2c0,0-0.2,1,1.6,1.4
		c0,0,2.5-0.2,3-1.7C84.3,10.7,84.2,10.4,83.9,10.2z"/>
	<path class="st6" d="M80.1,17.6c0,0,4.9,3.6,5.6,5.5c0.8,1.9-0.6-3-2.7-4.7"/>
	<circle class="st6" cx="81.8" cy="11" r="1.5"/>
	<path class="st6" d="M79,23.5l2.3-0.1c0,0-0.2,2.4,2.2,4.4c0,0,2.5,1.1,3.2,0.7l0.1,1.9c0,0-2.7,0.2-3.7,0.1c-0.1,0-0.2,0-0.3-0.1
		c-0.4-0.3-1.4,0.1-2.6-1.5C80.2,28.9,79.4,26.7,79,23.5z"/>
	<path class="st1" d="M85.5,4C85.5,4,85.5,4,85.5,4C85.5,4,85.5,4,85.5,4z"/>
	<path class="st1" d="M86.4,3.4"/>
	<path class="st9" d="M80.7,0.5C80.7,0.5,80.6,0.4,80.7,0.5C80.7,0.5,80.7,0.7,80.7,0.5z"/>
	<path class="st1" d="M84,0.8C84,0.8,84,0.8,84,0.8C84,0.7,84,0.7,84,0.8z"/>
	<path class="st1" d="M80.5,1.1c-0.2,0.1-0.3,0.1-0.3,0.1C80.3,1.2,80.4,1.1,80.5,1.1z"/>
	<path class="st1" d="M80.6,0.4C80.6,0.4,80.6,0.4,80.6,0.4C80.6,0.4,80.6,0.4,80.6,0.4C80.6,0.4,80.6,0.4,80.6,0.4z"/>
</g>
</svg>
