<?xml version="1.0" encoding="utf-8"?>
<!-- Generator: Adobe Illustrator 26.4.1, SVG Export Plug-In . SVG Version: 6.00 Build 0)  -->
<svg version="1.1" id="Layer_1" xmlns="http://www.w3.org/2000/svg" xmlns:xlink="http://www.w3.org/1999/xlink" x="0px" y="0px"
	 viewBox="0 0 259 110" style="enable-background:new 0 0 259 110;" xml:space="preserve">
<style type="text/css">
	.st0{fill:none;}
	.st1{fill:#755919;}
	.st2{fill:#FEBF10;}
	.st3{fill:#FFD447;}
</style>
<path class="st0" d="M126.3,54.8c-0.6,0.2-1.2,0.4-1.8,0.6s-1,0.6-1.4,0.9c-0.4,0.4-0.7,0.8-0.9,1.3s-0.3,1.1-0.3,1.8
	c0,0.4,0,0.7,0.1,1.1s0.2,0.7,0.4,0.9c0.2,0.3,0.4,0.5,0.7,0.6c0.3,0.2,0.6,0.2,1,0.2c0.4,0,0.9-0.1,1.4-0.3s0.9-0.5,1.4-0.8
	c0.5-0.4,0.9-0.8,1.3-1.3c0.4-0.5,0.8-1.1,1.1-1.6s0.6-1.2,0.8-1.9c0.2-0.7,0.4-1.3,0.4-2c-0.7,0-1.4,0.1-2.2,0.1
	S126.9,54.6,126.3,54.8z"/>
<path class="st0" d="M150.2,62.5c0.4-0.3,0.7-0.6,0.9-1c0.2-0.4,0.3-0.8,0.3-1.3c0-0.5-0.1-1-0.4-1.4s-0.6-0.7-1-1.1
	s-0.9-0.6-1.4-0.9c-0.1,0-0.1-0.1-0.2-0.1c-0.3,0.5-0.7,0.9-0.9,1.5c-0.3,0.8-0.5,1.7-0.5,2.6c0,0.8,0.1,1.5,0.3,2.1
	c0,0.1,0.1,0.3,0.1,0.4c0.4,0,0.9-0.1,1.3-0.2C149.3,63,149.8,62.8,150.2,62.5z"/>
<path class="st0" d="M198.1,82.1c-0.6,0.1-1.2,0.3-1.8,0.6s-1,0.5-1.4,0.9c-0.4,0.4-0.7,0.8-0.9,1.3c-0.2,0.5-0.3,1-0.3,1.7
	c0,0.4,0,0.7,0.1,1c0.1,0.3,0.2,0.6,0.4,0.9c0.2,0.2,0.4,0.4,0.7,0.6c0.3,0.1,0.6,0.2,1,0.2c0.4,0,0.9-0.1,1.4-0.3
	c0.5-0.2,0.9-0.5,1.4-0.8c0.5-0.3,0.9-0.8,1.3-1.2c0.4-0.5,0.8-1,1.1-1.6c0.3-0.6,0.6-1.2,0.8-1.8c0.2-0.6,0.4-1.3,0.4-1.9
	c-0.7,0-1.4,0.1-2.2,0.1S198.7,81.9,198.1,82.1z"/>
<path class="st0" d="M49.5,36.3c-1.1-1.3-2.5-2.3-4.2-3s-3.8-1.1-6.3-1.1c-0.6,0-1.2,0-1.9,0s-1.3,0.1-1.9,0.1c0,0.5,0,1.2,0,2.2
	s0,2.1-0.1,3.4s-0.1,2.7-0.1,4.2s-0.1,3.1-0.1,4.7s-0.1,3.2-0.2,4.7s-0.1,3.1-0.2,4.5s-0.1,2.7-0.2,3.8s-0.1,2.1-0.2,2.8
	c1,0.3,1.9,0.4,2.7,0.5s1.6,0.1,2.4,0.1c1.6,0,3.1-0.2,4.4-0.6s2.4-1,3.4-1.7s1.8-1.6,2.5-2.6s1.2-2.1,1.7-3.3s0.8-2.5,1-3.9
	s0.3-2.8,0.3-4.2c0-2.1-0.2-4.1-0.7-5.9S50.6,37.6,49.5,36.3z"/>
<path class="st1" d="M54.3,36.3c-0.8-1.1-1.7-2.1-2.7-2.8s-2.2-1.4-3.5-1.8c-1.3-0.5-2.6-0.8-4-1s-2.9-0.3-4.4-0.3
	c-1.1,0-2.2,0-3.3,0.1s-2.2,0.2-3.3,0.3s-2.2,0.3-3.3,0.5s-2.2,0.4-3.2,0.6l0.1,1.3c1-0.1,1.8-0.2,2.5-0.2c0.5,0,1,0.1,1.3,0.2
	s0.6,0.3,0.7,0.5s0.3,0.5,0.3,0.9s0.1,0.8,0.1,1.2c0,2.3,0,4.5,0,6.7s-0.1,4.2-0.1,6.1s-0.1,3.7-0.2,5.4s-0.1,3.2-0.2,4.6
	s-0.1,2.6-0.2,3.6s-0.2,1.9-0.2,2.5l0.3,0l2.9-0.4c1,0.3,2,0.5,3,0.6s1.9,0.2,2.8,0.2c1.8,0,3.4-0.2,5-0.7s3-1.1,4.2-1.9
	s2.4-1.8,3.4-3s1.8-2.5,2.5-3.9s1.2-3,1.6-4.7s0.5-3.4,0.5-5.2c0-2-0.2-3.8-0.6-5.3S55.1,37.4,54.3,36.3z M52.3,51
	c-0.2,1.4-0.5,2.7-1,3.9s-1,2.3-1.7,3.3s-1.5,1.9-2.5,2.6s-2.1,1.3-3.4,1.7s-2.8,0.6-4.4,0.6c-0.8,0-1.6,0-2.4-0.1s-1.7-0.3-2.7-0.5
	c0.1-0.7,0.1-1.6,0.2-2.8s0.1-2.4,0.2-3.8s0.1-2.9,0.2-4.5s0.1-3.2,0.2-4.7s0.1-3.1,0.1-4.7s0.1-2.9,0.1-4.2s0.1-2.4,0.1-3.4
	s0-1.7,0-2.2c0.6,0,1.3-0.1,1.9-0.1s1.2,0,1.9,0c2.5,0,4.6,0.4,6.3,1.1s3.1,1.7,4.2,3s1.8,2.8,2.3,4.6s0.7,3.8,0.7,5.9
	C52.6,48.3,52.5,49.7,52.3,51z"/>
<path class="st1" d="M115.2,62.4c-0.5,0.1-1.1,0.2-1.6,0.2c-0.4,0-0.6-0.1-0.9-0.2s-0.4-0.3-0.6-0.6s-0.3-0.7-0.3-1.1
	c-0.1-0.5-0.1-1.1-0.1-1.9c0-0.4,0-0.9,0.1-1.5s0.1-1.2,0.1-1.9s0.1-1.3,0.2-2s0.1-1.3,0.2-1.9s0.1-1.2,0.1-1.6s0.1-0.9,0.1-1.2
	c0-1-0.1-1.9-0.3-2.6s-0.5-1.3-0.9-1.8c-0.4-0.5-0.8-0.8-1.2-1s-0.9-0.3-1.4-0.3c-0.8,0-1.5,0.2-2.4,0.7s-1.6,1.2-2.4,2.2
	s-1.6,2.4-2.4,4.1s-1.5,3.8-2.2,6.3l-0.1,0c0-0.4,0.1-1,0.2-1.6s0.1-1.2,0.2-1.9s0.1-1.3,0.1-2s0.1-1.3,0.1-2c0-0.7-0.1-1.4-0.2-2.1
	s-0.4-1.3-0.6-1.8s-0.7-1-1.1-1.3s-1-0.5-1.7-0.5c-0.8,0-1.5,0.2-2.4,0.7s-1.6,1.2-2.4,2.2s-1.6,2.4-2.4,4.1s-1.5,3.8-2.2,6.2
	l-0.1,0c0.1-1.4,0.3-2.7,0.4-4s0.2-2.3,0.3-3.3s0.1-1.8,0.2-2.4s0.1-1.1,0.1-1.3c0-0.8-0.2-1.4-0.5-1.7s-0.8-0.5-1.3-0.5
	c-0.2,0-0.6,0-1,0.1s-0.9,0.2-1.4,0.3s-1.1,0.3-1.8,0.5s-1.3,0.4-2,0.7l0.2,1.1c0.6-0.2,1.2-0.3,1.7-0.4s0.9-0.1,1.3-0.1
	c0.3,0,0.5,0,0.7,0.1s0.3,0.2,0.5,0.3s0.2,0.4,0.3,0.7s0.1,0.6,0.1,1c0,0.4,0,1,0,1.8s0,1.6-0.1,2.6S84,54,84,55.1s-0.1,2.2-0.2,3.4
	s-0.1,2.2-0.2,3.3s-0.1,2.1-0.2,3l0.2,0l3.1-0.4c0.1-1.4,0.3-2.9,0.5-4.3s0.6-2.8,1-4.1s0.9-2.5,1.4-3.6s1-2.1,1.6-2.9
	s1.1-1.5,1.7-1.9s1.1-0.7,1.6-0.7c0.6,0,1.1,0.3,1.4,0.8s0.6,1.4,0.6,2.5c0,0.5,0,1.2-0.1,2s-0.1,1.8-0.2,3s-0.2,2.6-0.2,4.1
	s-0.2,3.4-0.3,5.4l0.2,0l3.1-0.4c0.1-1.4,0.3-2.9,0.6-4.3s0.6-2.8,1.1-4.1s0.9-2.5,1.4-3.7s1.1-2.1,1.6-2.9s1.1-1.5,1.7-2
	c0.6-0.5,1.1-0.7,1.6-0.7c0.6,0,1.2,0.3,1.5,0.8s0.6,1.3,0.6,2.4c0,0.4,0,0.9-0.1,1.6s-0.1,1.5-0.2,2.4s-0.1,1.8-0.2,2.8
	c-0.1,1-0.1,1.9-0.1,2.9c0,0.8,0,1.5,0.1,2.1c0,0.7,0.1,1.2,0.3,1.7c0.2,0.5,0.4,0.9,0.7,1.2s0.7,0.4,1.2,0.4c0.4,0,1-0.1,1.6-0.2
	s1.2-0.3,1.8-0.6c0.6-0.2,1.2-0.5,1.7-0.8s1-0.6,1.3-0.9l-0.3-0.8C116.3,62.1,115.8,62.3,115.2,62.4z"/>
<path class="st1" d="M136.4,63.2c-0.8,0-1.5-0.4-2.1-1.1c-0.5-0.7-0.8-1.8-0.8-3.2c0-0.9,0-1.8,0.1-2.7c0.1-0.9,0.1-1.8,0.2-2.6
	s0.1-1.7,0.2-2.4s0.1-1.5,0.1-2.1c0-0.9-0.1-1.8-0.3-2.5s-0.5-1.4-1-1.9c-0.5-0.5-1-0.9-1.8-1.2c-0.7-0.3-1.6-0.4-2.6-0.4
	c-0.6,0-1.2,0.1-1.8,0.2s-1.3,0.3-1.9,0.5s-1.3,0.5-1.9,0.8s-1.1,0.7-1.6,1.1s-0.8,0.9-1.1,1.4c-0.3,0.5-0.4,1-0.4,1.6
	c0,0.4,0.1,0.7,0.2,1c0.1,0.3,0.3,0.5,0.5,0.7c0.2,0.2,0.5,0.3,0.7,0.4s0.6,0.2,0.9,0.2c0.6,0,1.1-0.1,1.7-0.4l0.1-0.2
	c-0.3-0.4-0.6-0.9-0.8-1.4c-0.2-0.5-0.3-0.9-0.3-1.4c0-0.4,0.1-0.8,0.2-1.1c0.1-0.3,0.3-0.6,0.6-0.9c0.3-0.3,0.7-0.5,1.2-0.6
	s1.1-0.2,1.8-0.2c0.5,0,1,0.1,1.6,0.3s1,0.4,1.4,0.8s0.7,0.8,1,1.4s0.4,1.2,0.4,2c0,0.7,0,1.3-0.1,1.9c0,0.6-0.1,1.2-0.2,1.8
	c-1.1,0-2.1,0.1-3.1,0.2s-2,0.3-2.9,0.6s-1.8,0.6-2.5,1s-1.5,0.9-2,1.4c-0.6,0.6-1,1.2-1.3,1.9c-0.3,0.7-0.5,1.5-0.5,2.3
	c0,0.7,0.1,1.3,0.3,1.8c0.2,0.6,0.5,1,0.9,1.5c0.4,0.4,0.9,0.7,1.4,1s1.2,0.4,1.8,0.4c0.8,0,1.6-0.2,2.4-0.6
	c0.7-0.4,1.5-0.9,2.1-1.6c0.7-0.6,1.3-1.4,1.8-2.2s1-1.6,1.5-2.5h0.1c0,0.3-0.1,0.6-0.1,0.8c0,0.3,0,0.5,0,0.8
	c0,0.8,0.1,1.6,0.3,2.2s0.5,1.2,0.9,1.6s0.9,0.7,1.4,1s1.1,0.3,1.8,0.3c0.8,0,1.7-0.2,2.4-0.5s1.5-0.8,2.1-1.5l-0.4-0.6
	C138,63,137.1,63.2,136.4,63.2z M130,56.3c-0.2,0.7-0.5,1.3-0.8,1.9s-0.7,1.1-1.1,1.6c-0.4,0.5-0.8,0.9-1.3,1.3
	c-0.5,0.4-0.9,0.6-1.4,0.8s-0.9,0.3-1.4,0.3c-0.4,0-0.7-0.1-1-0.2c-0.3-0.2-0.5-0.4-0.7-0.6c-0.2-0.3-0.3-0.6-0.4-0.9
	s-0.1-0.7-0.1-1.1c0-0.7,0.1-1.3,0.3-1.8s0.5-1,0.9-1.3c0.4-0.4,0.9-0.7,1.4-0.9s1.1-0.5,1.8-0.6s1.3-0.3,2-0.3s1.4-0.1,2.2-0.1
	C130.4,55,130.2,55.6,130,56.3z"/>
<path class="st1" d="M148.9,56.2c-0.2,0.2-0.3,0.4-0.4,0.6c0.1,0,0.1,0.1,0.2,0.1c0.5,0.3,1,0.6,1.4,0.9s0.7,0.7,1,1.1
	s0.4,0.8,0.4,1.4c0,0.5-0.1,0.9-0.3,1.3c-0.2,0.4-0.5,0.7-0.9,1s-0.8,0.5-1.3,0.6c-0.4,0.1-0.9,0.2-1.3,0.2c0.2,0.5,0.4,0.9,0.6,1.3
	c0.1,0.1,0.1,0.2,0.2,0.3c0.3-0.1,0.6-0.1,0.9-0.2c1-0.3,1.8-0.7,2.6-1.2s1.3-1.2,1.8-2c0.4-0.8,0.7-1.7,0.7-2.7
	c0-0.8-0.2-1.6-0.5-2.2s-0.8-1.2-1.4-1.6c-0.2-0.2-0.4-0.3-0.6-0.4c-0.3,0.1-0.5,0.2-0.8,0.3C150.2,55.2,149.5,55.6,148.9,56.2z"/>
<path class="st1" d="M149.3,53.6c0.1-0.1,0.3-0.1,0.4-0.2c-0.5-0.2-1-0.5-1.5-0.7c-0.7-0.3-1.3-0.6-1.9-0.9c-0.6-0.3-1.2-0.6-1.6-1
	s-0.8-0.7-1.1-1.2s-0.4-0.9-0.4-1.4c0-0.4,0.1-0.8,0.3-1.2c0.2-0.4,0.5-0.7,0.9-1s0.8-0.6,1.4-0.7s1.2-0.3,1.9-0.3
	c0.4,0,0.8,0,1.2,0.1c0.4,0.1,0.8,0.2,1.1,0.4s0.6,0.4,0.8,0.8c0.2,0.3,0.3,0.7,0.3,1.1c0,0.2,0,0.5-0.1,0.7s-0.2,0.6-0.3,0.9l0,0.1
	c0.4,0.1,0.9,0.2,1.3,0.2c0.4,0,0.8-0.1,1.1-0.2s0.5-0.3,0.7-0.6s0.3-0.5,0.4-0.7s0.1-0.5,0.1-0.7c0-0.6-0.2-1.1-0.5-1.6
	c-0.3-0.5-0.7-0.9-1.2-1.2s-1.1-0.6-1.8-0.7c-0.7-0.2-1.4-0.3-2.2-0.3c-0.6,0-1.2,0.1-1.9,0.2s-1.3,0.3-1.9,0.5s-1.2,0.5-1.7,0.9
	s-1,0.7-1.4,1.2s-0.7,1-1,1.5s-0.4,1.2-0.4,1.9c0,0.6,0.1,1.2,0.3,1.7c0.2,0.5,0.4,1,0.7,1.4s0.7,0.8,1.1,1.1c0.4,0.3,0.9,0.7,1.4,1
	s1,0.6,1.5,0.8c0.4,0.2,0.8,0.4,1.2,0.6c0.2-0.2,0.4-0.4,0.6-0.6C147.8,54.6,148.5,54,149.3,53.6z"/>
<path class="st1" d="M144,62.4c-0.5-0.3-0.9-0.8-1.2-1.3c-0.3-0.5-0.5-1.2-0.6-1.9l-0.1-0.1c-0.3,0-0.7,0.1-1,0.1s-0.6,0.2-0.9,0.4
	s-0.5,0.4-0.6,0.6c-0.2,0.3-0.2,0.6-0.2,1c0,0.4,0.1,0.8,0.3,1.2s0.5,0.7,0.8,1s0.8,0.6,1.2,0.8c0.5,0.2,1,0.4,1.5,0.6
	c0.3,0.1,0.7,0.2,1,0.2c-0.1-0.6-0.2-1.2-0.2-1.8C143.9,62.9,144,62.6,144,62.4z"/>
<path class="st2" d="M160.6,74.7c-0.3-0.6-0.8-1.1-1.2-1.6s-1-0.9-1.5-1.4s-1.1-0.8-1.8-1.2c-0.6-0.4-1.2-0.7-1.8-1.1
	c-0.6-0.3-1.2-0.7-1.8-1s-1.1-0.7-1.7-1.1c-0.5-0.4-1-0.8-1.5-1.2c-0.4-0.3-0.7-0.7-1-1.1c-0.7,0.1-1.4,0.2-2.1,0.2
	c-0.5,0-1.1,0-1.6-0.1c-0.2,0-0.4-0.1-0.6-0.1c0,0.2,0.1,0.4,0.1,0.6c0.2,0.7,0.5,1.4,0.8,2s0.8,1.2,1.2,1.7c0.5,0.5,1,1,1.6,1.4
	s1.1,0.8,1.8,1.2c0.6,0.4,1.2,0.7,1.8,1.1c0.6,0.3,1.2,0.7,1.7,1s1.1,0.7,1.6,1.1s1,0.8,1.4,1.2s0.8,0.9,1.1,1.4
	c0.3,0.5,0.6,1,0.7,1.6s0.3,1.2,0.3,2c0,1.1-0.2,2.1-0.6,3c-0.4,0.9-0.9,1.6-1.6,2.2c-0.7,0.6-1.4,1-2.3,1.3
	c-0.9,0.3-1.8,0.4-2.8,0.4s-1.8-0.1-2.6-0.4c-0.8-0.2-1.4-0.6-2-1.1c-0.6-0.5-1-1.2-1.3-2s-0.4-1.9-0.4-3.1c0-0.2,0-0.5,0-0.7
	s0-0.5,0.1-0.7l-1.5-0.1c-0.1,1.8-0.2,3.4-0.2,4.7s-0.1,2.3-0.1,3c0,0.3,0.2,0.6,0.5,0.9s0.9,0.6,1.5,0.8c0.6,0.2,1.4,0.4,2.2,0.6
	s1.8,0.2,2.7,0.2c0.7,0,1.5-0.1,2.4-0.2c0.9-0.2,1.7-0.4,2.6-0.7s1.7-0.8,2.5-1.4s1.5-1.3,2.1-2.1s1.1-1.8,1.5-2.9s0.5-2.4,0.5-3.8
	c0-0.9-0.1-1.7-0.3-2.4S160.9,75.3,160.6,74.7z"/>
<path class="st2" d="M145.6,63.1c0.6,0.2,1.2,0.2,1.7,0.2c0.1,0,0.2,0,0.2,0c0-0.1-0.1-0.3-0.1-0.4c-0.2-0.6-0.3-1.3-0.3-2.1
	c0-0.9,0.2-1.8,0.5-2.6c0.2-0.6,0.5-1,0.9-1.5c-0.5-0.2-1-0.5-1.5-0.8c-0.1-0.1-0.3-0.1-0.4-0.2c-0.4,0.5-0.8,1-1.1,1.5
	c-0.5,0.8-0.8,1.7-1.1,2.7c-0.2,0.7-0.3,1.5-0.3,2.3c0,0,0,0,0,0C144.4,62.7,145,63,145.6,63.1z"/>
<path class="st2" d="M151.8,54.6c0.5-0.1,1.1-0.2,1.7-0.2c0.9,0,1.7,0.1,2.5,0.4s1.4,0.7,1.9,1.2c0.5,0.5,0.9,1.2,1.2,2
	s0.4,1.7,0.4,2.8c0,0.3,0,0.7,0,1.1l1.5,0.1c0-0.8,0.1-1.5,0.1-2.2s0.1-1.3,0.1-1.9c0-0.6,0-1.1,0-1.6c0-0.5,0-0.8,0-1.1
	c0-0.3-0.1-0.6-0.3-0.8c-0.2-0.3-0.5-0.5-0.8-0.7c-0.3-0.2-0.7-0.4-1.2-0.6c-0.4-0.2-0.9-0.3-1.4-0.4s-1-0.2-1.5-0.3
	c-0.5-0.1-0.9-0.1-1.4-0.1c-0.9,0-1.9,0.1-2.7,0.3c-0.7,0.2-1.5,0.5-2.1,0.8c0.2,0.1,0.5,0.2,0.7,0.4
	C150.9,54,151.3,54.3,151.8,54.6z"/>
<path class="st1" d="M146.3,65.2c0.7,0,1.4-0.1,2.1-0.2c-0.1-0.1-0.1-0.2-0.2-0.3c-0.3-0.4-0.5-0.9-0.6-1.3c-0.1,0-0.2,0-0.2,0
	c-0.6,0-1.2-0.1-1.7-0.2s-1.1-0.4-1.6-0.8c0,0,0,0,0,0c0,0.3,0,0.5,0,0.8c0,0.7,0.1,1.3,0.2,1.8c0.2,0,0.4,0.1,0.6,0.1
	C145.2,65.2,145.8,65.2,146.3,65.2z"/>
<path class="st2" d="M148.5,56.8c0.1-0.2,0.3-0.4,0.4-0.6c0.6-0.6,1.2-1,2-1.3c0.3-0.1,0.5-0.2,0.8-0.3c-0.4-0.3-0.9-0.6-1.4-0.8
	c-0.2-0.1-0.5-0.2-0.7-0.4c-0.1,0.1-0.3,0.1-0.4,0.2c-0.8,0.4-1.5,1-2.2,1.6c-0.2,0.2-0.4,0.4-0.6,0.6c0.1,0.1,0.3,0.1,0.4,0.2
	C147.5,56.3,148,56.5,148.5,56.8z"/>
<path class="st2" d="M185.7,88.4c-0.5,0.1-1.1,0.2-1.6,0.2c-0.4,0-0.6,0-0.9-0.1c-0.2-0.1-0.4-0.2-0.6-0.5c-0.1-0.2-0.3-0.5-0.3-0.9
	s-0.1-0.9-0.1-1.5c0-0.3,0-0.8,0.1-1.2c0-0.5,0.1-1,0.1-1.5s0.1-1.1,0.2-1.6s0.1-1.1,0.2-1.6s0.1-1,0.1-1.4s0.1-0.7,0.1-1
	c0-0.8-0.1-1.4-0.4-2c-0.2-0.6-0.5-1-0.9-1.4s-0.8-0.6-1.4-0.8s-1-0.3-1.6-0.3c-0.8,0-1.6,0.2-2.5,0.6s-1.7,1-2.6,1.9
	s-1.7,2-2.6,3.4s-1.6,3.1-2.4,5.1l-0.1,0c0.1-1.1,0.2-2.1,0.3-3.1c0.1-1,0.2-1.9,0.2-2.8c0.1-0.9,0.2-1.8,0.2-2.6
	c0.1-0.9,0.2-1.8,0.3-2.7s0.2-1.9,0.3-2.8s0.2-2.1,0.4-3.2s0.3-2.4,0.5-3.7s0.4-2.8,0.6-4.4c-0.6-0.3-1.3-0.4-1.8-0.4
	c-0.3,0-0.5,0-0.8,0.1s-0.5,0.1-0.7,0.2s-0.4,0.2-0.5,0.3s-0.2,0.3-0.2,0.5c-0.1,1.2-0.2,2.5-0.2,3.9c-0.1,1.3-0.2,2.7-0.3,4.1
	s-0.2,2.8-0.3,4.3s-0.2,2.9-0.3,4.3c-0.1,1.4-0.2,2.8-0.3,4.2s-0.2,2.7-0.3,3.9s-0.2,2.4-0.2,3.6s-0.1,2.1-0.2,3.1l0.2,0l3.1-0.3
	c0.1-1.2,0.3-2.3,0.6-3.5s0.7-2.3,1.1-3.3c0.5-1.1,1-2.1,1.6-3s1.2-1.7,1.8-2.4c0.6-0.7,1.2-1.2,1.9-1.6s1.2-0.6,1.8-0.6
	c0.7,0,1.3,0.2,1.7,0.7c0.4,0.4,0.6,1.1,0.6,2c0,0.4,0,0.8-0.1,1.4c-0.1,0.6-0.1,1.2-0.2,2s-0.1,1.5-0.2,2.2
	c-0.1,0.8-0.1,1.5-0.1,2.3c0,0.6,0,1.2,0.1,1.7c0,0.5,0.1,1,0.3,1.4s0.4,0.7,0.7,0.9c0.3,0.2,0.7,0.3,1.2,0.3c0.4,0,1-0.1,1.6-0.2
	s1.2-0.3,1.8-0.5s1.2-0.4,1.7-0.6c0.5-0.2,1-0.5,1.3-0.7l-0.3-0.6C186.8,88.1,186.3,88.3,185.7,88.4z"/>
<path class="st2" d="M208.2,90.1c-0.8,0-1.5-0.3-2.1-1c-0.5-0.7-0.8-1.7-0.8-3c0-0.8,0-1.7,0.1-2.5c0.1-0.8,0.1-1.7,0.2-2.5
	s0.1-1.6,0.2-2.3c0.1-0.7,0.1-1.4,0.1-2c0-0.9-0.1-1.7-0.3-2.4c-0.2-0.7-0.5-1.3-1-1.8c-0.5-0.5-1-0.9-1.8-1.1
	c-0.7-0.3-1.6-0.4-2.6-0.4c-0.6,0-1.2,0.1-1.8,0.2c-0.7,0.1-1.3,0.3-1.9,0.5s-1.3,0.5-1.9,0.8c-0.6,0.3-1.1,0.7-1.6,1.1
	s-0.8,0.8-1.1,1.3c-0.3,0.5-0.4,1-0.4,1.5c0,0.3,0.1,0.6,0.2,0.9c0.1,0.3,0.3,0.5,0.5,0.7c0.2,0.2,0.5,0.3,0.7,0.4
	c0.3,0.1,0.6,0.1,0.9,0.1c0.6,0,1.1-0.1,1.7-0.4l0.1-0.2c-0.3-0.4-0.6-0.9-0.8-1.3c-0.2-0.4-0.3-0.9-0.3-1.3c0-0.4,0.1-0.7,0.2-1.1
	c0.1-0.3,0.3-0.6,0.6-0.9c0.3-0.2,0.7-0.4,1.2-0.6s1.1-0.2,1.8-0.2c0.5,0,1,0.1,1.6,0.2c0.5,0.2,1,0.4,1.4,0.8
	c0.4,0.3,0.7,0.8,1,1.3s0.4,1.2,0.4,1.9c0,0.7,0,1.3-0.1,1.8c0,0.5-0.1,1.1-0.2,1.7c-1.1,0-2.1,0.1-3.1,0.2c-1,0.1-2,0.3-2.9,0.6
	s-1.8,0.6-2.5,1s-1.5,0.8-2,1.4c-0.6,0.5-1,1.1-1.3,1.8c-0.3,0.7-0.5,1.4-0.5,2.2c0,0.6,0.1,1.2,0.3,1.7s0.5,1,0.9,1.4
	c0.4,0.4,0.9,0.7,1.4,0.9c0.6,0.2,1.2,0.3,1.8,0.3c0.8,0,1.6-0.2,2.4-0.6c0.7-0.4,1.5-0.9,2.1-1.5c0.7-0.6,1.3-1.3,1.8-2.1
	c0.6-0.8,1-1.6,1.5-2.3h0.1c0,0.3-0.1,0.5-0.1,0.8c0,0.2,0,0.5,0,0.7c0,0.8,0.1,1.5,0.3,2.1s0.5,1.1,0.9,1.5s0.9,0.7,1.4,0.9
	s1.1,0.3,1.8,0.3c0.8,0,1.7-0.2,2.4-0.5c0.8-0.3,1.5-0.8,2.1-1.4l-0.4-0.6C209.8,89.9,208.9,90.1,208.2,90.1z M201.8,83.6
	c-0.2,0.6-0.5,1.2-0.8,1.8c-0.3,0.6-0.7,1.1-1.1,1.6c-0.4,0.5-0.8,0.9-1.3,1.2c-0.5,0.3-0.9,0.6-1.4,0.8c-0.5,0.2-0.9,0.3-1.4,0.3
	c-0.4,0-0.7-0.1-1-0.2c-0.3-0.1-0.5-0.3-0.7-0.6c-0.2-0.2-0.3-0.5-0.4-0.9c-0.1-0.3-0.1-0.7-0.1-1c0-0.6,0.1-1.2,0.3-1.7
	c0.2-0.5,0.5-0.9,0.9-1.3c0.4-0.4,0.9-0.7,1.4-0.9s1.1-0.4,1.8-0.6c0.6-0.1,1.3-0.3,2-0.3s1.4-0.1,2.2-0.1
	C202.2,82.3,202,82.9,201.8,83.6z"/>
<path class="st2" d="M246.3,89.1c-0.6,0.2-1.1,0.4-1.7,0.6s-1.1,0.2-1.6,0.2c-0.4,0-0.6,0-0.9-0.1s-0.4-0.3-0.6-0.5
	c-0.1-0.3-0.3-0.6-0.3-1.1c-0.1-0.5-0.1-1-0.1-1.8c0-0.4,0-0.9,0.1-1.4s0.1-1.1,0.1-1.8c0-0.6,0.1-1.2,0.2-1.9
	c0.1-0.6,0.1-1.2,0.2-1.8s0.1-1.1,0.1-1.6s0.1-0.8,0.1-1.1c0-1-0.1-1.8-0.3-2.4c-0.2-0.7-0.5-1.2-0.9-1.7c-0.4-0.4-0.8-0.7-1.2-0.9
	c-0.5-0.2-0.9-0.3-1.4-0.3c-0.8,0-1.5,0.2-2.4,0.6c-0.8,0.4-1.6,1.1-2.4,2.1c-0.8,1-1.6,2.3-2.4,3.9c-0.8,1.6-1.5,3.6-2.2,6l-0.1,0
	c0-0.4,0.1-0.9,0.2-1.5c0.1-0.6,0.1-1.2,0.2-1.8c0.1-0.6,0.1-1.3,0.1-1.9s0.1-1.3,0.1-1.8c0-0.7-0.1-1.3-0.2-2s-0.4-1.2-0.6-1.7
	s-0.7-0.9-1.1-1.2c-0.5-0.3-1-0.5-1.7-0.5c-0.8,0-1.5,0.2-2.4,0.6c-0.8,0.4-1.6,1.1-2.4,2.1c-0.8,1-1.6,2.3-2.4,3.9
	c-0.8,1.6-1.5,3.6-2.2,5.9l-0.1,0c0.1-1.3,0.3-2.6,0.4-3.7s0.2-2.2,0.3-3.1c0.1-0.9,0.1-1.7,0.2-2.3c0-0.6,0.1-1,0.1-1.2
	c0-0.8-0.2-1.3-0.5-1.6s-0.8-0.5-1.3-0.5c-0.2,0-0.6,0-1,0.1c-0.4,0.1-0.9,0.2-1.4,0.3c-0.5,0.1-1.1,0.3-1.8,0.5
	c-0.6,0.2-1.3,0.4-2,0.6l0.2,1c0.6-0.2,1.2-0.3,1.7-0.4s0.9-0.1,1.3-0.1c0.3,0,0.5,0,0.7,0.1c0.2,0.1,0.3,0.2,0.5,0.3
	c0.1,0.2,0.2,0.4,0.3,0.6c0.1,0.3,0.1,0.6,0.1,1c0,0.4,0,1,0,1.7c0,0.7,0,1.5-0.1,2.4c0,0.9-0.1,1.9-0.1,2.9c0,1-0.1,2.1-0.2,3.2
	S213.1,88,213,89c-0.1,1-0.1,2-0.2,2.9l0.2,0l3.1-0.4c0.1-1.4,0.3-2.7,0.5-4.1c0.3-1.4,0.6-2.7,1-3.9s0.9-2.4,1.4-3.4
	c0.5-1.1,1-2,1.6-2.7s1.1-1.4,1.7-1.8c0.6-0.4,1.1-0.7,1.6-0.7c0.6,0,1.1,0.3,1.4,0.8c0.4,0.5,0.6,1.3,0.6,2.3c0,0.5,0,1.1-0.1,1.9
	c0,0.8-0.1,1.7-0.2,2.8c-0.1,1.1-0.2,2.4-0.2,3.9c-0.1,1.5-0.2,3.2-0.3,5.2l0.2,0l3.1-0.4c0.1-1.4,0.3-2.7,0.6-4.1
	c0.3-1.4,0.6-2.7,1.1-3.9c0.4-1.2,0.9-2.4,1.4-3.5c0.5-1.1,1.1-2,1.6-2.8s1.1-1.4,1.7-1.8c0.6-0.4,1.1-0.7,1.6-0.7
	c0.6,0,1.2,0.3,1.5,0.8s0.6,1.3,0.6,2.3c0,0.4,0,0.9-0.1,1.6c-0.1,0.7-0.1,1.5-0.2,2.3c-0.1,0.8-0.1,1.7-0.2,2.7
	c-0.1,0.9-0.1,1.8-0.1,2.7c0,0.7,0,1.4,0.1,2c0,0.6,0.1,1.2,0.3,1.6c0.2,0.5,0.4,0.8,0.7,1.1s0.7,0.4,1.2,0.4c0.4,0,1-0.1,1.6-0.2
	c0.6-0.1,1.2-0.3,1.8-0.6c0.6-0.2,1.2-0.5,1.7-0.8s1-0.5,1.3-0.8L246.3,89.1z"/>
<g>
	<path class="st2" d="M53.1,87c-6.1,0-12-0.3-17.4-0.7c5.5,4.7,16.9,7.9,30.2,7.9c18.6,0,33.7-6.3,33.7-14.2c0-0.6-0.1-1.1-0.2-1.7
		C96.9,83.1,77.1,87,53.1,87z"/>
	<path class="st3" d="M99.3,78.3c0.2-0.3,0.2-0.7,0.2-1c0-1.4-1.3-2.7-3.8-3.8C97.6,74.9,98.8,76.5,99.3,78.3z"/>
	<path class="st3" d="M95.8,73.4c-2.4-1.9-5.7-3.6-9.8-4.8c0.3,0.6,0.5,1.3,0.7,2c0.9,2.6,1.3,5.7,0.9,9.1c0,0-4.2-6-8.9-10.5
		c-1.1-1.1-2.3-2-3.4-2.8c-2.3-0.3-4.8-0.5-7.3-0.5c0.4,0.7,0.9,1.5,1.2,2.4c1.2,3.1,1.7,7-0.2,11.5c0,0-3.8-7.7-8.3-11.9
		c-0.7-0.6-1.4-1.2-2-1.6c-1.4,0.1-2.9,0.3-4.2,0.5c0.2,0.3,0.4,0.6,0.5,1c1.3,2.7,1.9,6.1,0.9,10.1c0,0-4.1-5.8-8.7-9.5
		c-9.1,2.5-15.1,6.9-15.1,11.8c0,2.3,1.3,4.4,3.5,6.3c5.4,0.5,11.2,0.7,17.4,0.7c24,0,43.8-3.8,46.2-8.7
		C98.8,76.5,97.6,74.9,95.8,73.4z"/>
</g>
<path class="st0" d="M72,53.1c0.1-0.6,0.1-1.2,0.2-1.8s0.1-1.2,0.1-1.9c0-0.8-0.1-1.4-0.4-2c-0.1-0.2-0.2-0.4-0.3-0.6
	c-0.3,1.6-1,3.7-2,6.4C70.3,53.1,71.1,53.1,72,53.1z"/>
<path class="st0" d="M67.5,61.6c0.2-0.1,0.5-0.3,0.7-0.5c0.5-0.4,0.9-0.8,1.3-1.3s0.8-1.1,1.1-1.6s0.6-1.2,0.8-1.9s0.4-1.3,0.4-2
	c-0.7,0-1.4,0.1-2.2,0.1c-0.3,0-0.5,0.1-0.7,0.1c-0.2,0.4-0.3,0.8-0.5,1.2C68.5,55.7,67.8,57.9,67.5,61.6z"/>
<path class="st0" d="M64.5,59c0.2-1,0.4-2.1,0.6-3.2c-0.2,0.2-0.4,0.3-0.6,0.5c-0.4,0.4-0.7,0.8-0.9,1.3s-0.3,1.1-0.3,1.8
	c0,0.4,0,0.7,0.1,1.1s0.2,0.7,0.4,0.9c0.2,0.2,0.4,0.4,0.6,0.6C64.3,61,64.3,60,64.5,59z"/>
<path class="st1" d="M80.3,62.4c-0.9,0.6-1.8,0.8-2.5,0.8c-0.8,0-1.5-0.4-2.1-1.1S75,60.4,75,59c0-0.9,0-1.8,0.1-2.7
	s0.1-1.8,0.2-2.6s0.1-1.7,0.2-2.4s0.1-1.5,0.1-2.1c0-0.9-0.1-1.8-0.3-2.5s-0.5-1.4-1-1.9s-1-0.9-1.8-1.2c-0.2-0.1-0.3-0.1-0.5-0.1
	c0,0.8-0.1,1.9-0.4,3.4c0.1,0.2,0.2,0.4,0.3,0.6c0.3,0.6,0.4,1.2,0.4,2c0,0.7,0,1.3-0.1,1.9S72,52.4,72,53.1c-0.8,0-1.7,0.1-2.5,0.1
	c-0.2,0.4-0.3,0.9-0.5,1.3c0.2,0,0.5-0.1,0.7-0.1c0.7-0.1,1.4-0.1,2.2-0.1c-0.1,0.7-0.2,1.4-0.4,2s-0.5,1.3-0.8,1.9
	s-0.7,1.1-1.1,1.6s-0.8,0.9-1.3,1.3c-0.2,0.2-0.5,0.3-0.7,0.5c-0.1,0.7-0.1,1.5-0.1,2.4c0.4-0.3,0.8-0.6,1.2-1
	c0.7-0.6,1.3-1.4,1.8-2.2s1-1.6,1.5-2.5h0.1c0,0.3-0.1,0.6-0.1,0.8s0,0.5,0,0.8c0,0.8,0.1,1.6,0.3,2.2s0.5,1.2,0.9,1.6
	s0.9,0.7,1.4,1s1.1,0.3,1.8,0.3c0.8,0,1.7-0.2,2.4-0.5s1.5-0.8,2.1-1.5L80.3,62.4z"/>
<path class="st1" d="M63.7,61.4c-0.2-0.3-0.3-0.6-0.4-0.9s-0.1-0.7-0.1-1.1c0-0.7,0.1-1.3,0.3-1.8s0.5-1,0.9-1.3
	c0.2-0.2,0.4-0.3,0.6-0.5c0.1-0.6,0.3-1.2,0.4-1.8c-0.8,0.2-1.5,0.5-2.2,0.9c-0.8,0.4-1.5,0.9-2,1.4s-1,1.2-1.3,1.9
	s-0.5,1.5-0.5,2.3c0,0.7,0.1,1.3,0.3,1.8s0.5,1,0.9,1.5s0.9,0.7,1.4,1s1.2,0.4,1.8,0.4c0.2,0,0.5,0,0.7-0.1c-0.2-1-0.4-2-0.4-3.1
	C64.1,61.9,63.9,61.7,63.7,61.4z"/>
<path class="st1" d="M68.9,43.2c-0.3,0-0.6,0.1-0.9,0.1c-0.6,0.1-1.3,0.3-1.9,0.5s-1.3,0.5-1.9,0.8s-1.1,0.7-1.6,1.1
	s-0.8,0.9-1.1,1.4s-0.4,1-0.4,1.6c0,0.4,0.1,0.7,0.2,1s0.3,0.5,0.5,0.7s0.5,0.3,0.7,0.4s0.6,0.2,0.9,0.2c0.6,0,1.1-0.1,1.7-0.4
	l0.1-0.2c-0.3-0.4-0.6-0.9-0.8-1.4s-0.3-0.9-0.3-1.4c0-0.4,0.1-0.8,0.2-1.1s0.3-0.6,0.6-0.9s0.7-0.5,1.2-0.6s1.1-0.2,1.8-0.2
	c0.1,0,0.3,0,0.4,0c0.3-0.8,0.5-1.3,0.5-1.3S68.8,43.4,68.9,43.2z"/>
<path class="st3" d="M71.9,43.4c0-1.1-0.2-1.5-0.2-1.5c-0.4-6.8-2.9-11.5-2.9-11.5c1.9,5.6,0.5,11.3,0.1,12.8c0.3,0,0.6-0.1,0.9-0.1
	C70.6,43.1,71.3,43.2,71.9,43.4z"/>
<path class="st3" d="M68.8,53.2c0.2,0,0.4,0,0.6-0.1c1-2.7,1.7-4.8,2-6.4c-0.2-0.3-0.4-0.6-0.7-0.8c-0.4-0.4-0.9-0.6-1.4-0.8
	C69,45,68.7,45,68.3,44.9c-0.6,1.8-1.8,5.4-2.7,9.1c0.1,0,0.3-0.1,0.4-0.1C66.8,53.6,67.8,53.4,68.8,53.2z"/>
<path class="st3" d="M64.8,65.1c1,4.2,3.1,7.3,3.1,7.3c-0.5-3.2-0.6-6-0.5-8.4c-0.3,0.2-0.6,0.4-0.9,0.6
	C65.9,64.8,65.4,65,64.8,65.1z"/>
<path class="st3" d="M65.9,55.4c-0.3,0.1-0.5,0.3-0.8,0.5c-0.2,1.1-0.5,2.2-0.6,3.2c-0.2,1-0.2,2-0.1,3c0,0,0,0,0.1,0
	c0.3,0.2,0.6,0.2,1,0.2c0.4,0,0.9-0.1,1.4-0.3c0.2-0.1,0.5-0.2,0.7-0.4c0.3-3.7,1-5.9,1-5.9c0.2-0.4,0.3-0.8,0.5-1.2
	c-0.4,0.1-0.9,0.1-1.3,0.2C67,54.9,66.4,55.1,65.9,55.4z"/>
<path class="st3" d="M65.9,55.4c0.5-0.3,1.1-0.5,1.8-0.6c0.4-0.1,0.8-0.2,1.3-0.2c0.2-0.5,0.4-0.9,0.5-1.3c-0.2,0-0.4,0-0.6,0.1
	c-1,0.1-2,0.3-2.9,0.6c-0.1,0-0.3,0.1-0.4,0.1c-0.2,0.6-0.3,1.2-0.4,1.8C65.3,55.7,65.6,55.5,65.9,55.4z"/>
<path class="st1" d="M66.8,62c-0.5,0.2-0.9,0.3-1.4,0.3c-0.4,0-0.7-0.1-1-0.2c0,0,0,0-0.1,0c0.1,1.1,0.2,2.1,0.4,3.1
	c0.6-0.1,1.1-0.3,1.6-0.5c0.3-0.2,0.6-0.4,0.9-0.6c0-0.9,0.1-1.6,0.1-2.4C67.3,61.7,67,61.9,66.8,62z"/>
<path class="st1" d="M70.8,46c0.3,0.2,0.5,0.5,0.7,0.8c0.3-1.5,0.4-2.6,0.4-3.4c-0.6-0.2-1.3-0.3-2.1-0.3c-0.3,0-0.6,0-0.9,0.1
	c-0.1,0.2-0.1,0.4-0.1,0.4s-0.2,0.5-0.5,1.3c0.4,0,0.8,0.1,1.2,0.2C70,45.3,70.4,45.6,70.8,46z"/>
<path class="st3" d="M67.4,37.3c0,0-2-2.9-1.5-5.9c0.5-3,1.9-6.8,1.9-6.8s1-2.9,0-5.8c0,0,1.1,2.1,1.3,5c0,0,0.7,1.3-1.4,6.1
	C67.7,30,66.8,32.8,67.4,37.3z"/>
</svg>
